<svg xmlns="http://www.w3.org/2000/svg" xmlns:xlink="http://www.w3.org/1999/xlink" width="3049" height="3549" viewBox="0 0 3049 3549">
  <defs>
    <linearGradient id="linear-gradient" x1="0.5" x2="0.5" y2="1" gradientUnits="objectBoundingBox">
      <stop offset="0" stop-color="#4c44ba"/>
      <stop offset="1" stop-color="#ec20fb"/>
    </linearGradient>
    <clipPath id="clip-Artboard_4">
      <rect width="3049" height="3549"/>
    </clipPath>
  </defs>
  <g id="Artboard_4" data-name="Artboard – 4" clip-path="url(#clip-Artboard_4)">
    <rect width="3049" height="3549" fill="#fcfcfc"/>
    <path id="Rectangle_15" data-name="Rectangle 15" d="M0,0H926.333A780.667,780.667,0,0,1,1707,780.667v0A390.333,390.333,0,0,1,1316.667,1171H0a0,0,0,0,1,0,0V0A0,0,0,0,1,0,0Z" transform="translate(-3 2812)" fill="url(#linear-gradient)"/>
    <path id="Rectangle_16" data-name="Rectangle 16" d="M471.333,0H1322a0,0,0,0,1,0,0V1414a0,0,0,0,1,0,0H942.667A942.667,942.667,0,0,1,0,471.333v0A471.333,471.333,0,0,1,471.333,0Z" transform="translate(1732 -582)" fill="url(#linear-gradient)"/>
  </g>
</svg>
