<svg xmlns="http://www.w3.org/2000/svg" width="996" height="626" fill="none" viewBox="0 0 996 626"><g filter="url(#filter0_ddii)"><path fill="#fff" d="M120 50c0-13.255 10.745-24 24-24h704c13.255 0 24 10.745 24 24v476a8 8 0 0 1-8 8H128a8 8 0 0 1-8-8V50z"/><path fill="#EBF2FA" d="M120 50c0-13.255 10.745-24 24-24h704c13.255 0 24 10.745 24 24v476a8 8 0 0 1-8 8H128a8 8 0 0 1-8-8V50z"/></g><path fill="#fff" d="M160 70a4 4 0 0 1 4-4h664a4 4 0 0 1 4 4v432a4 4 0 0 1-4 4H164a4 4 0 0 1-4-4V70z" filter="url(#filter1_d)"/><rect width="24" height="12" x="500" y="462" fill="#00AFEF" rx="1"/><rect width="24" height="12" x="528" y="462" fill="#00AFEF" rx="1"/><rect width="148" height="20" x="496" y="458" fill="#F5F7FA" rx="2"/><rect width="18" height="10" x="501" y="463" fill="#C5D2E0" rx="1"/><rect width="18" height="10" x="522" y="463" fill="#C5D2E0" rx="1"/><path fill="#787F92" d="M500.918 449.148c-.057.607-.281 1.081-.672 1.422-.391.339-.91.508-1.558.508-.454 0-.853-.107-1.2-.32a2.14 2.14 0 0 1-.797-.918c-.187-.396-.285-.856-.293-1.379v-.531c0-.537.095-1.009.286-1.418.19-.409.462-.724.816-.946a2.295 2.295 0 0 1 1.234-.332c.628 0 1.133.171 1.516.512.383.341.605.823.668 1.445h-.984c-.047-.408-.167-.703-.36-.882-.19-.183-.47-.274-.84-.274-.429 0-.76.158-.992.473-.229.312-.346.772-.351 1.379v.504c0 .614.109 1.083.328 1.406.221.323.544.484.969.484.388 0 .679-.087.874-.261.196-.175.32-.465.372-.872h.984zm.617-.3c0-.414.082-.787.246-1.118.164-.333.395-.588.692-.765.297-.18.638-.27 1.023-.27.57 0 1.033.184 1.387.551.357.367.549.854.578 1.461l.004.223c0 .416-.081.789-.242 1.117a1.762 1.762 0 0 1-.688.762c-.297.179-.64.269-1.031.269-.596 0-1.074-.198-1.434-.594-.356-.398-.535-.928-.535-1.589v-.047zm.949.082c0 .435.09.776.27 1.023.18.245.43.367.75.367s.569-.125.746-.375c.18-.25.27-.616.27-1.097 0-.427-.093-.766-.278-1.016a.874.874 0 0 0-.746-.375.87.87 0 0 0-.738.371c-.182.245-.274.612-.274 1.102zm4.664-2.157l.028.489c.312-.378.722-.567 1.23-.567.88 0 1.328.504 1.344 1.512V451h-.949v-2.738c0-.269-.059-.466-.176-.594-.115-.13-.303-.195-.566-.195-.383 0-.668.173-.856.519V451h-.949v-4.227h.894zm4.454 0l.027.489c.312-.378.723-.567 1.23-.567.881 0 1.329.504 1.344 1.512V451h-.949v-2.738c0-.269-.059-.466-.176-.594-.114-.13-.303-.195-.566-.195-.383 0-.668.173-.856.519V451h-.949v-4.227h.895zm5.433 4.305c-.601 0-1.09-.189-1.465-.566-.372-.38-.558-.886-.558-1.516v-.117c0-.422.08-.798.242-1.129a1.87 1.87 0 0 1 .687-.777c.295-.185.623-.278.985-.278.575 0 1.019.184 1.332.551.315.367.472.887.472 1.559v.383h-2.761c.028.348.144.624.347.828.206.203.464.304.774.304.435 0 .789-.175 1.062-.527l.512.488a1.719 1.719 0 0 1-.68.59 2.123 2.123 0 0 1-.949.207zm-.113-3.621a.806.806 0 0 0-.633.273c-.159.183-.26.437-.305.762h1.809v-.07c-.021-.318-.105-.557-.254-.719-.148-.164-.354-.246-.617-.246zm4.285 2.863a.858.858 0 0 0 .59-.207.709.709 0 0 0 .25-.511h.894c-.01.263-.092.509-.246.738a1.622 1.622 0 0 1-.625.539 1.86 1.86 0 0 1-.851.199c-.591 0-1.06-.191-1.407-.574-.346-.383-.519-.912-.519-1.586v-.098c0-.643.172-1.157.516-1.543.343-.388.812-.582 1.406-.582.502 0 .911.147 1.226.442.318.291.485.675.5 1.152h-.894a.871.871 0 0 0-.25-.598.793.793 0 0 0-.59-.234c-.307 0-.544.112-.711.336-.167.221-.251.559-.254 1.012v.152c0 .458.082.801.246 1.027.167.224.407.336.719.336zm3.641-4.574v1.027h.746v.704h-.746v2.359c0 .161.031.279.093.352.066.07.18.105.344.105.11 0 .22-.013.332-.039v.734a2.33 2.33 0 0 1-.625.09c-.729 0-1.094-.402-1.094-1.207v-2.394h-.695v-.704h.695v-1.027h.95zm1.179 3.102c0-.414.082-.787.246-1.118.165-.333.395-.588.692-.765.297-.18.638-.27 1.023-.27.571 0 1.033.184 1.387.551.357.367.549.854.578 1.461l.004.223c0 .416-.081.789-.242 1.117a1.762 1.762 0 0 1-.688.762c-.297.179-.64.269-1.031.269-.596 0-1.074-.198-1.434-.594-.356-.398-.535-.928-.535-1.589v-.047zm.95.082c0 .435.089.776.269 1.023.18.245.43.367.75.367s.569-.125.746-.375c.18-.25.27-.616.27-1.097 0-.427-.093-.766-.278-1.016a.874.874 0 0 0-.746-.375.87.87 0 0 0-.738.371c-.182.245-.273.612-.273 1.102zm5.996-1.289a2.332 2.332 0 0 0-.387-.032c-.435 0-.728.167-.879.5V451h-.949v-4.227h.906l.024.473c.229-.367.546-.551.953-.551a.9.9 0 0 1 .336.055l-.004.891zm2.968 2.211c0-.17-.07-.299-.211-.387-.138-.089-.368-.167-.691-.235a3.556 3.556 0 0 1-.809-.257c-.473-.23-.71-.562-.71-.996 0-.365.153-.67.46-.915.308-.244.698-.367 1.172-.367.506 0 .913.125 1.223.375.313.25.469.575.469.973h-.949a.578.578 0 0 0-.204-.453c-.135-.123-.315-.184-.539-.184a.843.843 0 0 0-.511.145.455.455 0 0 0-.196.387c0 .145.062.259.184.339.122.081.37.163.742.246.372.081.664.179.875.293.214.112.371.248.473.407.104.159.156.351.156.578 0 .38-.158.689-.473.926-.315.234-.728.351-1.238.351-.346 0-.655-.062-.926-.187a1.528 1.528 0 0 1-.633-.516 1.22 1.22 0 0 1-.226-.707h.922a.674.674 0 0 0 .254.52c.156.119.363.179.621.179.25 0 .44-.047.57-.14a.448.448 0 0 0 .195-.375z"/><rect width="148" height="20" x="332" y="458" fill="#F5F7FA" rx="2"/><path fill="#787F92" d="M333.566 450.211h2.582V451h-3.57v-5.688h.988v4.899zm5.774.789a1.476 1.476 0 0 1-.11-.395 1.473 1.473 0 0 1-1.109.473c-.424 0-.771-.121-1.039-.363a1.163 1.163 0 0 1-.402-.899c0-.45.166-.795.5-1.035.336-.242.815-.363 1.437-.363h.582v-.277c0-.219-.061-.394-.183-.524-.123-.133-.309-.199-.559-.199a.831.831 0 0 0-.531.164.497.497 0 0 0-.207.41h-.949c0-.232.076-.448.23-.648.154-.203.362-.362.625-.477.266-.114.561-.172.887-.172.495 0 .889.125 1.183.375.295.248.446.597.453 1.047v1.906c0 .381.054.684.161.911V451h-.969zm-1.043-.684c.187 0 .363-.045.527-.136a.906.906 0 0 0 .375-.368v-.796h-.511c-.352 0-.616.061-.793.183a.594.594 0 0 0-.266.52c0 .182.06.328.18.437.122.107.285.16.488.16zm3.726-3.543l.028.489c.312-.378.722-.567 1.23-.567.88 0 1.328.504 1.344 1.512V451h-.949v-2.738c0-.269-.059-.466-.176-.594-.115-.13-.303-.195-.566-.195-.383 0-.668.173-.856.519V451h-.949v-4.227h.894zm6.645 2.114V451h-.988v-5.688h2.175c.636 0 1.14.166 1.512.497.375.33.563.768.563 1.312 0 .557-.184.991-.551 1.301-.365.31-.876.465-1.535.465h-1.176zm0-.793h1.187c.352 0 .62-.082.805-.246.185-.167.278-.407.278-.719 0-.307-.094-.552-.282-.734-.187-.185-.445-.28-.773-.286h-1.215v1.985zm3.805.754c0-.414.082-.787.246-1.118a1.78 1.78 0 0 1 .691-.765c.297-.18.638-.27 1.024-.27.57 0 1.032.184 1.386.551.357.367.55.854.578 1.461l.004.223c0 .416-.08.789-.242 1.117a1.766 1.766 0 0 1-.687.762 1.96 1.96 0 0 1-1.032.269c-.596 0-1.074-.198-1.433-.594-.357-.398-.535-.928-.535-1.589v-.047zm.949.082c0 .435.09.776.269 1.023.18.245.43.367.75.367a.864.864 0 0 0 .747-.375c.179-.25.269-.616.269-1.097 0-.427-.092-.766-.277-1.016a.875.875 0 0 0-.746-.375.873.873 0 0 0-.739.371c-.182.245-.273.612-.273 1.102zm5.996-1.289a2.332 2.332 0 0 0-.387-.032c-.435 0-.728.167-.879.5V451h-.949v-4.227h.906l.024.473c.229-.367.547-.551.953-.551a.9.9 0 0 1 .336.055l-.004.891zm1.984-1.895v1.027h.746v.704h-.746v2.359c0 .161.032.279.094.352.065.07.18.105.344.105.109 0 .22-.013.332-.039v.734c-.216.06-.425.09-.625.09-.729 0-1.094-.402-1.094-1.207v-2.394h-.695v-.704h.695v-1.027h.949zm3.844 4.106c0-.17-.07-.299-.211-.387-.138-.089-.368-.167-.691-.235a3.54 3.54 0 0 1-.809-.257c-.474-.23-.711-.562-.711-.996 0-.365.154-.67.461-.915.307-.244.698-.367 1.172-.367.505 0 .913.125 1.223.375.312.25.468.575.468.973h-.949a.578.578 0 0 0-.203-.453c-.135-.123-.315-.184-.539-.184a.848.848 0 0 0-.512.145.457.457 0 0 0-.195.387c0 .145.061.259.184.339.122.081.369.163.742.246.372.081.664.179.875.293.213.112.371.248.472.407.105.159.157.351.157.578 0 .38-.158.689-.473.926-.315.234-.728.351-1.238.351-.347 0-.655-.062-.926-.187a1.522 1.522 0 0 1-.633-.516 1.22 1.22 0 0 1-.226-.707h.921a.678.678 0 0 0 .254.52c.157.119.364.179.621.179.25 0 .441-.047.571-.14a.448.448 0 0 0 .195-.375z"/><rect width="148" height="20" x="332" y="406" fill="#F5F7FA" rx="2"/><path fill="#787F92" d="M336.688 394.109h-1.774V399h-.98v-4.891h-1.758v-.797h4.512v.797zm-.333 2.739c0-.414.083-.787.247-1.118a1.78 1.78 0 0 1 .691-.765c.297-.18.638-.27 1.023-.27.571 0 1.033.184 1.387.551.357.367.55.854.578 1.461l.004.223c0 .416-.081.789-.242 1.117a1.762 1.762 0 0 1-.688.762c-.296.179-.64.269-1.031.269-.596 0-1.074-.198-1.433-.594-.357-.398-.536-.928-.536-1.589v-.047zm.95.082c0 .435.09.776.269 1.023.18.245.43.367.75.367a.86.86 0 0 0 .746-.375c.18-.25.27-.616.27-1.097 0-.427-.093-.766-.278-1.016a.873.873 0 0 0-.746-.375.871.871 0 0 0-.738.371c-.182.245-.273.612-.273 1.102zm4.972-3.184v1.027h.746v.704h-.746v2.359c0 .161.032.279.094.352.065.07.18.105.344.105.109 0 .22-.013.332-.039v.734c-.216.06-.425.09-.625.09-.729 0-1.094-.402-1.094-1.207v-2.394h-.695v-.704h.695v-1.027h.949zm4 5.254a1.483 1.483 0 0 1-.109-.395 1.474 1.474 0 0 1-1.109.473c-.425 0-.771-.121-1.039-.363a1.16 1.16 0 0 1-.403-.899c0-.45.167-.795.5-1.035.336-.242.815-.363 1.438-.363h.582v-.277c0-.219-.061-.394-.184-.524-.122-.133-.308-.199-.558-.199a.832.832 0 0 0-.532.164.497.497 0 0 0-.207.41h-.949c0-.232.077-.448.231-.648.153-.203.361-.362.624-.477a2.23 2.23 0 0 1 .887-.172c.495 0 .89.125 1.184.375.294.248.445.597.453 1.047v1.906c0 .381.053.684.16.911V399h-.969zm-1.043-.684c.188 0 .364-.045.528-.136a.917.917 0 0 0 .375-.368v-.796h-.512c-.352 0-.616.061-.793.183a.597.597 0 0 0-.266.52c0 .182.06.328.18.437.122.107.285.16.488.16zm3.856.684h-.949v-6h.949v6zm4.402-5.688l1.641 4.36 1.637-4.36h1.277V399h-.985v-1.875l.098-2.508-1.68 4.383h-.707l-1.675-4.379.097 2.504V399h-.984v-5.688h1.281zm7.496 5.766c-.601 0-1.09-.189-1.465-.566-.372-.38-.558-.886-.558-1.516v-.117c0-.422.081-.798.242-1.129.164-.333.393-.592.688-.777a1.81 1.81 0 0 1 .984-.278c.575 0 1.019.184 1.332.551.315.367.473.887.473 1.559v.383h-2.762c.029.348.144.624.348.828.205.203.463.304.773.304.435 0 .789-.175 1.062-.527l.512.488a1.723 1.723 0 0 1-.679.59 2.13 2.13 0 0 1-.95.207zm-.113-3.621a.808.808 0 0 0-.633.273c-.159.183-.26.437-.304.762h1.808v-.07c-.021-.318-.105-.557-.254-.719-.148-.164-.354-.246-.617-.246zm3.441-.684l.028.442c.297-.347.703-.52 1.218-.52.566 0 .952.216 1.161.649.307-.433.739-.649 1.297-.649.466 0 .812.129 1.039.387.229.258.346.638.351 1.141V399h-.949v-2.75c0-.268-.059-.465-.176-.59-.117-.125-.311-.187-.582-.187a.792.792 0 0 0-.531.175.904.904 0 0 0-.285.454l.004 2.898h-.95v-2.781c-.013-.498-.267-.746-.761-.746-.381 0-.65.155-.809.465V399h-.949v-4.227h.894zm5.891 2.075c0-.414.082-.787.246-1.118.164-.333.395-.588.692-.765.296-.18.638-.27 1.023-.27.57 0 1.033.184 1.387.551.356.367.549.854.578 1.461l.004.223c0 .416-.081.789-.242 1.117a1.762 1.762 0 0 1-.688.762 1.96 1.96 0 0 1-1.031.269c-.597 0-1.074-.198-1.434-.594-.357-.398-.535-.928-.535-1.589v-.047zm.949.082c0 .435.09.776.27 1.023.179.245.429.367.75.367.32 0 .569-.125.746-.375.18-.25.269-.616.269-1.097 0-.427-.092-.766-.277-1.016a.874.874 0 0 0-.746-.375.87.87 0 0 0-.738.371c-.183.245-.274.612-.274 1.102zm5.996-1.289a2.329 2.329 0 0 0-.386-.032c-.435 0-.728.167-.879.5V399h-.949v-4.227h.906l.023.473c.229-.367.547-.551.953-.551.136 0 .248.019.336.055l-.004.891zm2.149 2l.859-2.868h1.012l-1.68 4.868c-.258.711-.695 1.066-1.312 1.066a1.69 1.69 0 0 1-.457-.07v-.735l.179.012c.24 0 .42-.044.539-.133.123-.086.219-.232.289-.437l.137-.364-1.484-4.207h1.023l.895 2.868z"/><path fill="#A3B3C2" d="M351.551 365.535c0-.25-.089-.443-.266-.578-.174-.135-.491-.272-.949-.41-.458-.138-.823-.292-1.094-.461-.518-.326-.777-.75-.777-1.274 0-.458.186-.835.558-1.132.375-.297.861-.446 1.457-.446.396 0 .749.073 1.059.219.31.146.553.354.731.625.177.268.265.567.265.895h-.984c0-.297-.094-.529-.281-.696-.185-.169-.451-.254-.797-.254-.323 0-.575.069-.754.207a.693.693 0 0 0-.266.579c0 .208.096.382.289.523.193.138.511.273.953.406.443.13.798.28 1.067.45.268.166.465.359.59.578.125.216.187.47.187.761 0 .474-.182.852-.547 1.133-.362.279-.854.418-1.476.418-.412 0-.791-.075-1.137-.226a1.943 1.943 0 0 1-.805-.633 1.58 1.58 0 0 1-.285-.938h.988c0 .323.107.573.321.75.213.177.519.266.918.266.343 0 .601-.069.773-.207a.678.678 0 0 0 .262-.555zm4.324 1.051c-.279.328-.674.492-1.187.492-.459 0-.806-.134-1.043-.402-.235-.268-.352-.656-.352-1.164v-2.739h.949v2.727c0 .536.223.805.668.805.461 0 .772-.166.934-.496v-3.036h.949V367h-.895l-.023-.414zm5.586-1.656c0 .653-.149 1.175-.445 1.566-.297.388-.696.582-1.196.582-.463 0-.834-.152-1.113-.457v2.004h-.949v-5.852h.875l.039.43c.279-.338.657-.508 1.137-.508.515 0 .919.193 1.211.578.294.383.441.916.441 1.598v.059zm-.945-.082c0-.422-.085-.757-.254-1.004a.814.814 0 0 0-.719-.371c-.388 0-.667.16-.836.48v1.875c.172.328.453.492.844.492a.814.814 0 0 0 .707-.363c.172-.245.258-.615.258-1.109zm5.453.082c0 .653-.149 1.175-.446 1.566-.296.388-.695.582-1.195.582-.463 0-.835-.152-1.113-.457v2.004h-.949v-5.852h.875l.039.43c.278-.338.657-.508 1.136-.508.516 0 .92.193 1.211.578.295.383.442.916.442 1.598v.059zm-.946-.082c0-.422-.084-.757-.253-1.004a.814.814 0 0 0-.719-.371c-.388 0-.667.16-.836.48v1.875c.172.328.453.492.844.492a.816.816 0 0 0 .707-.363c.172-.245.257-.615.257-1.109zm1.575 0c0-.414.082-.787.246-1.118a1.78 1.78 0 0 1 .691-.765c.297-.18.638-.27 1.024-.27.57 0 1.032.184 1.386.551.357.367.55.854.578 1.461l.004.223c0 .416-.08.789-.242 1.117a1.766 1.766 0 0 1-.687.762 1.96 1.96 0 0 1-1.032.269c-.596 0-1.074-.198-1.433-.594-.357-.398-.535-.928-.535-1.589v-.047zm.949.082c0 .435.09.776.269 1.023.18.245.43.367.75.367a.86.86 0 0 0 .746-.375c.18-.25.27-.616.27-1.097 0-.427-.092-.766-.277-1.016a.875.875 0 0 0-.746-.375.873.873 0 0 0-.739.371c-.182.245-.273.612-.273 1.102zm5.996-1.289a2.332 2.332 0 0 0-.387-.032c-.435 0-.728.167-.879.5V367h-.949v-4.227h.906l.024.473c.229-.367.547-.551.953-.551a.9.9 0 0 1 .336.055l-.004.891zm1.984-1.895v1.027h.746v.704h-.746v2.359c0 .161.032.279.094.352.065.07.18.105.344.105.109 0 .22-.013.332-.039v.734c-.216.06-.425.09-.625.09-.729 0-1.094-.402-1.094-1.207v-2.394h-.695v-.704h.695v-1.027h.949zm3.844 4.106c0-.17-.07-.299-.211-.387-.138-.089-.368-.167-.691-.235a3.54 3.54 0 0 1-.809-.257c-.474-.23-.711-.562-.711-.996 0-.365.154-.67.461-.915.307-.244.698-.367 1.172-.367.505 0 .913.125 1.223.375.312.25.468.575.468.973h-.949a.578.578 0 0 0-.203-.453c-.135-.123-.315-.184-.539-.184a.848.848 0 0 0-.512.145.457.457 0 0 0-.195.387c0 .145.061.259.184.339.122.081.369.163.742.246.372.081.664.179.875.293.213.112.371.248.472.407.105.159.157.351.157.578 0 .38-.158.689-.473.926-.315.234-.728.351-1.238.351-.347 0-.655-.062-.926-.187a1.522 1.522 0 0 1-.633-.516 1.22 1.22 0 0 1-.226-.707h.921a.678.678 0 0 0 .254.52c.157.119.364.179.621.179.25 0 .441-.047.571-.14a.448.448 0 0 0 .195-.375zm3.848 1.148v-5.688h1.679c.503 0 .948.112 1.336.336.391.224.693.542.907.954.213.411.32.882.32 1.414v.285c0 .539-.108 1.013-.324 1.422a2.25 2.25 0 0 1-.918.945 2.753 2.753 0 0 1-1.364.332h-1.636zm.988-4.891v4.102h.645c.518 0 .915-.162 1.191-.484.279-.326.421-.792.426-1.399v-.316c0-.617-.134-1.089-.403-1.414-.268-.326-.657-.489-1.168-.489h-.691zm4.238 4.891v-5.688h1.95c.643 0 1.132.129 1.468.387.336.258.504.642.504 1.153 0 .26-.07.494-.211.703-.14.208-.346.369-.617.484.307.083.544.241.711.473.169.229.254.505.254.828 0 .534-.172.944-.516 1.23-.341.287-.83.43-1.468.43h-2.075zm.989-2.566v1.777h1.097c.31 0 .552-.077.727-.231.174-.153.262-.367.262-.64 0-.591-.303-.893-.907-.906h-1.179zm0-.727h.968c.308 0 .547-.069.719-.207.175-.141.262-.339.262-.594 0-.281-.081-.484-.242-.609-.159-.125-.408-.188-.746-.188h-.961v1.598zm4.058 3.293v-5.688h1.68c.502 0 .948.112 1.336.336.39.224.693.542.906.954.214.411.32.882.32 1.414v.285c0 .539-.108 1.013-.324 1.422a2.238 2.238 0 0 1-.918.945c-.396.221-.85.332-1.363.332h-1.637zm.988-4.891v4.102h.645c.518 0 .915-.162 1.191-.484.279-.326.421-.792.426-1.399v-.316c0-.617-.134-1.089-.402-1.414-.268-.326-.658-.489-1.168-.489h-.692zm8.579 3.039c-.058.607-.282 1.081-.672 1.422-.391.339-.91.508-1.559.508-.453 0-.853-.107-1.199-.32a2.133 2.133 0 0 1-.797-.918c-.187-.396-.285-.856-.293-1.379v-.531c0-.537.095-1.009.285-1.418.19-.409.462-.724.817-.946a2.293 2.293 0 0 1 1.234-.332c.628 0 1.133.171 1.516.512.382.341.605.823.668 1.445h-.985c-.047-.408-.166-.703-.359-.882-.19-.183-.47-.274-.84-.274-.43 0-.76.158-.992.473-.229.312-.347.772-.352 1.379v.504c0 .614.11 1.083.328 1.406.222.323.545.484.969.484.388 0 .68-.087.875-.261.195-.175.319-.465.371-.872h.985z"/><rect width="11" height="11" x="332.5" y="338.5" stroke="#D8E1EB" rx="1.5"/><path fill="#A3B3C2" d="M351.551 345.535c0-.25-.089-.443-.266-.578-.174-.135-.491-.272-.949-.41-.458-.138-.823-.292-1.094-.461-.518-.326-.777-.75-.777-1.274 0-.458.186-.835.558-1.132.375-.297.861-.446 1.457-.446.396 0 .749.073 1.059.219.31.146.553.354.731.625.177.268.265.567.265.895h-.984c0-.297-.094-.529-.281-.696-.185-.169-.451-.254-.797-.254-.323 0-.575.069-.754.207a.693.693 0 0 0-.266.579c0 .208.096.382.289.523.193.138.511.273.953.406.443.13.798.28 1.067.45.268.166.465.359.59.578.125.216.187.47.187.761 0 .474-.182.852-.547 1.133-.362.279-.854.418-1.476.418-.412 0-.791-.075-1.137-.226a1.943 1.943 0 0 1-.805-.633 1.58 1.58 0 0 1-.285-.938h.988c0 .323.107.573.321.75.213.177.519.266.918.266.343 0 .601-.069.773-.207a.678.678 0 0 0 .262-.555zm4.324 1.051c-.279.328-.674.492-1.187.492-.459 0-.806-.134-1.043-.402-.235-.268-.352-.656-.352-1.164v-2.739h.949v2.727c0 .536.223.805.668.805.461 0 .772-.166.934-.496v-3.036h.949V347h-.895l-.023-.414zm5.586-1.656c0 .653-.149 1.175-.445 1.566-.297.388-.696.582-1.196.582-.463 0-.834-.152-1.113-.457v2.004h-.949v-5.852h.875l.039.43c.279-.338.657-.508 1.137-.508.515 0 .919.193 1.211.578.294.383.441.916.441 1.598v.059zm-.945-.082c0-.422-.085-.757-.254-1.004a.814.814 0 0 0-.719-.371c-.388 0-.667.16-.836.48v1.875c.172.328.453.492.844.492a.814.814 0 0 0 .707-.363c.172-.245.258-.615.258-1.109zm5.453.082c0 .653-.149 1.175-.446 1.566-.296.388-.695.582-1.195.582-.463 0-.835-.152-1.113-.457v2.004h-.949v-5.852h.875l.039.43c.278-.338.657-.508 1.136-.508.516 0 .92.193 1.211.578.295.383.442.916.442 1.598v.059zm-.946-.082c0-.422-.084-.757-.253-1.004a.814.814 0 0 0-.719-.371c-.388 0-.667.16-.836.48v1.875c.172.328.453.492.844.492a.816.816 0 0 0 .707-.363c.172-.245.257-.615.257-1.109zm1.575 0c0-.414.082-.787.246-1.118a1.78 1.78 0 0 1 .691-.765c.297-.18.638-.27 1.024-.27.57 0 1.032.184 1.386.551.357.367.55.854.578 1.461l.004.223c0 .416-.08.789-.242 1.117a1.766 1.766 0 0 1-.687.762 1.96 1.96 0 0 1-1.032.269c-.596 0-1.074-.198-1.433-.594-.357-.398-.535-.928-.535-1.589v-.047zm.949.082c0 .435.09.776.269 1.023.18.245.43.367.75.367a.86.86 0 0 0 .746-.375c.18-.25.27-.616.27-1.097 0-.427-.092-.766-.277-1.016a.875.875 0 0 0-.746-.375.873.873 0 0 0-.739.371c-.182.245-.273.612-.273 1.102zm5.996-1.289a2.332 2.332 0 0 0-.387-.032c-.435 0-.728.167-.879.5V347h-.949v-4.227h.906l.024.473c.229-.367.547-.551.953-.551a.9.9 0 0 1 .336.055l-.004.891zm1.984-1.895v1.027h.746v.704h-.746v2.359c0 .161.032.279.094.352.065.07.18.105.344.105.109 0 .22-.013.332-.039v.734c-.216.06-.425.09-.625.09-.729 0-1.094-.402-1.094-1.207v-2.394h-.695v-.704h.695v-1.027h.949zm3.844 4.106c0-.17-.07-.299-.211-.387-.138-.089-.368-.167-.691-.235a3.54 3.54 0 0 1-.809-.257c-.474-.23-.711-.562-.711-.996 0-.365.154-.67.461-.915.307-.244.698-.367 1.172-.367.505 0 .913.125 1.223.375.312.25.468.575.468.973h-.949a.578.578 0 0 0-.203-.453c-.135-.123-.315-.184-.539-.184a.848.848 0 0 0-.512.145.457.457 0 0 0-.195.387c0 .145.061.259.184.339.122.081.369.163.742.246.372.081.664.179.875.293.213.112.371.248.472.407.105.159.157.351.157.578 0 .38-.158.689-.473.926-.315.234-.728.351-1.238.351-.347 0-.655-.062-.926-.187a1.522 1.522 0 0 1-.633-.516 1.22 1.22 0 0 1-.226-.707h.921a.678.678 0 0 0 .254.52c.157.119.364.179.621.179.25 0 .441-.047.571-.14a.448.448 0 0 0 .195-.375zM387.73 347h-.988l-2.535-4.035V347h-.988v-5.688h.988l2.543 4.051v-4.051h.98V347zm4.422-1.324h-2.203l-.461 1.324h-1.027l2.148-5.688h.887l2.152 5.688h-1.031l-.465-1.324zm-1.925-.797h1.648l-.824-2.359-.824 2.359zm7.711-2.77h-1.774V347h-.98v-4.891h-1.758v-.797h4.512v.797zm7.046 2.196c0 .557-.096 1.047-.289 1.468a2.18 2.18 0 0 1-.828.969 2.272 2.272 0 0 1-1.234.336 2.3 2.3 0 0 1-1.235-.336 2.247 2.247 0 0 1-.836-.965c-.195-.416-.294-.897-.296-1.441v-.32c0-.555.097-1.045.293-1.469.198-.425.475-.749.832-.973.359-.226.77-.34 1.234-.34.464 0 .874.112 1.23.336.36.222.637.542.833.961.195.417.294.903.296 1.457v.317zm-.988-.297c0-.63-.12-1.113-.359-1.449-.237-.336-.575-.504-1.012-.504-.427 0-.762.168-1.004.504-.239.333-.362.806-.367 1.418v.328c0 .625.121 1.108.363 1.449.245.341.584.512 1.016.512.437 0 .773-.167 1.008-.5.237-.334.355-.821.355-1.461v-.297zm2.215 2.992v-3.523h-.645v-.704h.645v-.386c0-.469.13-.831.391-1.086.26-.255.625-.383 1.093-.383.167 0 .344.023.532.07l-.024.742a1.935 1.935 0 0 0-.363-.031c-.453 0-.68.233-.68.699v.375h.86v.704h-.86V347h-.949zm2.836 0v-3.523h-.645v-.704h.645v-.386c0-.469.13-.831.391-1.086.26-.255.624-.383 1.093-.383.167 0 .344.023.531.07l-.023.742a1.935 1.935 0 0 0-.363-.031c-.453 0-.68.233-.68.699v.375h.859v.704h-.859V347h-.949zm4.715-3.359a2.332 2.332 0 0 0-.387-.032c-.435 0-.728.167-.879.5V347h-.949v-4.227h.906l.024.473c.229-.367.546-.551.953-.551a.9.9 0 0 1 .336.055l-.004.891zm.281 1.207c0-.414.082-.787.246-1.118.164-.333.395-.588.691-.765.297-.18.638-.27 1.024-.27.57 0 1.032.184 1.387.551.356.367.549.854.578 1.461l.004.223c0 .416-.081.789-.243 1.117a1.76 1.76 0 0 1-.687.762 1.96 1.96 0 0 1-1.031.269c-.597 0-1.074-.198-1.434-.594-.357-.398-.535-.928-.535-1.589v-.047zm.949.082c0 .435.09.776.27 1.023.179.245.429.367.75.367.32 0 .569-.125.746-.375.18-.25.269-.616.269-1.097 0-.427-.092-.766-.277-1.016a.874.874 0 0 0-.746-.375.87.87 0 0 0-.738.371c-.183.245-.274.612-.274 1.102zm6.309 2.07a1.476 1.476 0 0 1-.11-.395 1.473 1.473 0 0 1-1.109.473c-.424 0-.771-.121-1.039-.363a1.163 1.163 0 0 1-.402-.899c0-.45.166-.795.5-1.035.336-.242.815-.363 1.437-.363h.582v-.277c0-.219-.061-.394-.183-.524-.123-.133-.309-.199-.559-.199a.831.831 0 0 0-.531.164.497.497 0 0 0-.207.41h-.95c0-.232.077-.448.231-.648.154-.203.362-.362.625-.477.266-.114.561-.172.887-.172.494 0 .889.125 1.183.375.295.248.446.597.453 1.047v1.906c0 .381.054.684.161.911V347h-.969zm-1.043-.684c.187 0 .363-.045.527-.136a.906.906 0 0 0 .375-.368v-.796h-.512c-.351 0-.615.061-.793.183a.596.596 0 0 0-.265.52c0 .182.06.328.18.437.122.107.285.16.488.16zm2.668-1.461c0-.651.151-1.173.453-1.566.302-.396.707-.594 1.215-.594.448 0 .81.157 1.086.469V341h.949v6h-.859l-.047-.438c-.284.344-.663.516-1.137.516-.495 0-.896-.199-1.203-.598-.305-.398-.457-.94-.457-1.625zm.949.083c0 .429.082.765.246 1.007a.81.81 0 0 0 .707.36c.388 0 .672-.173.852-.52v-1.805c-.175-.338-.456-.507-.844-.507a.81.81 0 0 0-.711.367c-.167.242-.25.608-.25 1.098zm4.754 2.062h-.949v-4.227h.949V347zm-1.008-5.324c0-.146.046-.267.137-.364.094-.096.226-.144.398-.144.172 0 .305.048.399.144.093.097.14.218.14.364a.496.496 0 0 1-.14.359c-.094.094-.227.141-.399.141-.172 0-.304-.047-.398-.141a.502.502 0 0 1-.137-.359zm2.926 1.097l.027.489c.313-.378.723-.567 1.231-.567.88 0 1.328.504 1.343 1.512V347h-.949v-2.738c0-.269-.058-.466-.176-.594-.114-.13-.303-.195-.566-.195-.383 0-.668.173-.855.519V347h-.95v-4.227h.895zm3.406 2.082c0-.656.154-1.179.461-1.57.31-.393.72-.59 1.231-.59.481 0 .86.168 1.136.504l.043-.426h.856v4.098c0 .555-.173.992-.52 1.313-.344.32-.808.48-1.394.48-.31 0-.614-.065-.911-.195-.294-.128-.518-.296-.671-.504l.449-.57c.291.346.651.519 1.078.519.315 0 .564-.086.746-.258.182-.169.273-.419.273-.75v-.285c-.273.305-.638.457-1.093.457-.495 0-.9-.196-1.215-.59-.313-.393-.469-.937-.469-1.633zm.945.083c0 .424.086.759.258 1.003a.842.842 0 0 0 .723.364c.383 0 .667-.164.851-.493v-1.859c-.179-.32-.46-.48-.843-.48a.843.843 0 0 0-.731.371c-.172.247-.258.612-.258 1.094z"/><rect width="11" height="11" x="332.5" y="358.5" stroke="#D8E1EB" rx="1.5"/><rect width="148" height="20" x="660" y="302" fill="#F5F7FA" rx="2"/><rect width="148" height="20" x="496" y="302" fill="#F5F7FA" rx="2"/><rect width="148" height="20" x="332" y="302" fill="#F5F7FA" rx="2"/><path fill="#787F92" d="M664.918 293.148c-.057.607-.281 1.081-.672 1.422-.391.339-.91.508-1.558.508-.454 0-.853-.107-1.2-.32a2.14 2.14 0 0 1-.797-.918c-.187-.396-.285-.856-.293-1.379v-.531c0-.537.095-1.009.286-1.418.19-.409.462-.724.816-.946a2.295 2.295 0 0 1 1.234-.332c.628 0 1.133.171 1.516.512.383.341.605.823.668 1.445h-.984c-.047-.408-.167-.703-.36-.882-.19-.183-.47-.274-.84-.274-.429 0-.76.158-.992.473-.229.312-.346.772-.351 1.379v.504c0 .614.109 1.083.328 1.406.221.323.544.484.969.484.388 0 .679-.087.874-.261.196-.175.32-.465.372-.872h.984zm.617-.3c0-.414.082-.787.246-1.118.164-.333.395-.588.692-.765.297-.18.638-.27 1.023-.27.57 0 1.033.184 1.387.551.357.367.549.854.578 1.461l.004.223c0 .416-.081.789-.242 1.117a1.762 1.762 0 0 1-.688.762c-.297.179-.64.269-1.031.269-.596 0-1.074-.198-1.434-.594-.356-.398-.535-.928-.535-1.589v-.047zm.949.082c0 .435.09.776.27 1.023.18.245.43.367.75.367s.569-.125.746-.375c.18-.25.27-.616.27-1.097 0-.427-.093-.766-.278-1.016a.874.874 0 0 0-.746-.375.87.87 0 0 0-.738.371c-.182.245-.274.612-.274 1.102zm5.996-1.289a2.32 2.32 0 0 0-.386-.032c-.435 0-.728.167-.879.5V295h-.949v-4.227h.906l.023.473c.229-.367.547-.551.953-.551.136 0 .248.019.336.055l-.004.891zm2.383 3.437c-.601 0-1.09-.189-1.465-.566-.372-.38-.558-.886-.558-1.516v-.117c0-.422.081-.798.242-1.129.164-.333.393-.592.688-.777a1.81 1.81 0 0 1 .984-.278c.575 0 1.019.184 1.332.551.315.367.473.887.473 1.559v.383h-2.762c.029.348.144.624.348.828.205.203.463.304.773.304.435 0 .789-.175 1.062-.527l.512.488a1.719 1.719 0 0 1-.68.59 2.123 2.123 0 0 1-.949.207zm-.113-3.621a.808.808 0 0 0-.633.273c-.159.183-.26.437-.305.762h1.809v-.07c-.021-.318-.105-.557-.254-.719-.148-.164-.354-.246-.617-.246zm7.91 1.133h-2.289V295h-.988v-5.688h3.613v.797h-2.625v1.692h2.289v.789zm3.141-.949a2.332 2.332 0 0 0-.387-.032c-.435 0-.728.167-.879.5V295h-.949v-4.227h.906l.024.473c.229-.367.546-.551.953-.551a.9.9 0 0 1 .336.055l-.004.891zm2.383 3.437c-.602 0-1.09-.189-1.465-.566-.373-.38-.559-.886-.559-1.516v-.117c0-.422.081-.798.242-1.129.164-.333.394-.592.688-.777a1.81 1.81 0 0 1 .984-.278c.576 0 1.02.184 1.332.551.315.367.473.887.473 1.559v.383h-2.762c.029.348.145.624.348.828.206.203.463.304.773.304.435 0 .789-.175 1.063-.527l.511.488a1.716 1.716 0 0 1-.679.59 2.126 2.126 0 0 1-.949.207zm-.114-3.621a.804.804 0 0 0-.632.273c-.159.183-.261.437-.305.762h1.808v-.07c-.02-.318-.105-.557-.253-.719-.149-.164-.355-.246-.618-.246zm2.371 1.395c0-.662.151-1.187.454-1.575.302-.388.71-.582 1.226-.582.471 0 .845.166 1.121.496l.055-.418h.844v5.852h-.95v-1.984c-.276.291-.635.437-1.078.437a1.46 1.46 0 0 1-1.215-.59c-.304-.396-.457-.941-.457-1.636zm.95.082c0 .432.084.772.254 1.019a.819.819 0 0 0 .71.367c.375 0 .654-.16.836-.48v-1.922c-.182-.307-.458-.461-.828-.461a.836.836 0 0 0-.715.363c-.171.242-.257.614-.257 1.114zm6.336 1.652c-.279.328-.675.492-1.188.492-.458 0-.806-.134-1.043-.402-.234-.268-.351-.656-.351-1.164v-2.739h.949v2.727c0 .536.222.805.668.805.461 0 .772-.166.933-.496v-3.036h.95V295h-.895l-.023-.414zm3.746.492c-.602 0-1.09-.189-1.465-.566-.373-.38-.559-.886-.559-1.516v-.117c0-.422.081-.798.242-1.129.164-.333.394-.592.688-.777a1.81 1.81 0 0 1 .984-.278c.576 0 1.02.184 1.332.551.315.367.473.887.473 1.559v.383h-2.762c.029.348.145.624.348.828.206.203.463.304.773.304.435 0 .789-.175 1.063-.527l.512.488c-.17.253-.396.449-.68.59a2.126 2.126 0 0 1-.949.207zm-.114-3.621a.804.804 0 0 0-.632.273c-.159.183-.261.437-.305.762h1.808v-.07c-.02-.318-.105-.557-.253-.719-.149-.164-.355-.246-.618-.246zm3.43-.684l.027.489c.313-.378.723-.567 1.231-.567.88 0 1.328.504 1.344 1.512V295h-.95v-2.738c0-.269-.058-.466-.175-.594-.115-.13-.304-.195-.567-.195-.383 0-.668.173-.855.519V295h-.949v-4.227h.894zm5.309 3.547a.86.86 0 0 0 .59-.207.709.709 0 0 0 .25-.511h.894c-.01.263-.092.509-.246.738a1.63 1.63 0 0 1-.625.539 1.86 1.86 0 0 1-.852.199c-.591 0-1.06-.191-1.406-.574-.346-.383-.519-.912-.519-1.586v-.098c0-.643.171-1.157.515-1.543.344-.388.813-.582 1.406-.582.503 0 .912.147 1.227.442.318.291.484.675.5 1.152h-.894a.871.871 0 0 0-.25-.598.794.794 0 0 0-.59-.234c-.308 0-.545.112-.711.336-.167.221-.252.559-.254 1.012v.152c0 .458.082.801.246 1.027.167.224.406.336.719.336zm3.929-.679l.86-2.868h1.011l-1.679 4.868c-.258.711-.696 1.066-1.313 1.066-.138 0-.29-.023-.457-.07v-.735l.18.012c.239 0 .419-.044.539-.133.122-.086.219-.232.289-.437l.137-.364-1.485-4.207h1.024l.894 2.868zM500.918 293.148c-.057.607-.281 1.081-.672 1.422-.391.339-.91.508-1.558.508-.454 0-.853-.107-1.2-.32a2.14 2.14 0 0 1-.797-.918c-.187-.396-.285-.856-.293-1.379v-.531c0-.537.095-1.009.286-1.418.19-.409.462-.724.816-.946a2.295 2.295 0 0 1 1.234-.332c.628 0 1.133.171 1.516.512.383.341.605.823.668 1.445h-.984c-.047-.408-.167-.703-.36-.882-.19-.183-.47-.274-.84-.274-.429 0-.76.158-.992.473-.229.312-.346.772-.351 1.379v.504c0 .614.109 1.083.328 1.406.221.323.544.484.969.484.388 0 .679-.087.874-.261.196-.175.32-.465.372-.872h.984zm.617-.3c0-.414.082-.787.246-1.118.164-.333.395-.588.692-.765.297-.18.638-.27 1.023-.27.57 0 1.033.184 1.387.551.357.367.549.854.578 1.461l.004.223c0 .416-.081.789-.242 1.117a1.762 1.762 0 0 1-.688.762c-.297.179-.64.269-1.031.269-.596 0-1.074-.198-1.434-.594-.356-.398-.535-.928-.535-1.589v-.047zm.949.082c0 .435.09.776.27 1.023.18.245.43.367.75.367s.569-.125.746-.375c.18-.25.27-.616.27-1.097 0-.427-.093-.766-.278-1.016a.874.874 0 0 0-.746-.375.87.87 0 0 0-.738.371c-.182.245-.274.612-.274 1.102zm5.996-1.289a2.32 2.32 0 0 0-.386-.032c-.435 0-.728.167-.879.5V295h-.949v-4.227h.906l.023.473c.229-.367.547-.551.953-.551.136 0 .248.019.336.055l-.004.891zm2.383 3.437c-.601 0-1.09-.189-1.465-.566-.372-.38-.558-.886-.558-1.516v-.117c0-.422.081-.798.242-1.129.164-.333.393-.592.688-.777a1.81 1.81 0 0 1 .984-.278c.575 0 1.019.184 1.332.551.315.367.473.887.473 1.559v.383h-2.762c.029.348.144.624.348.828.205.203.463.304.773.304.435 0 .789-.175 1.062-.527l.512.488a1.719 1.719 0 0 1-.68.59 2.123 2.123 0 0 1-.949.207zm-.113-3.621a.808.808 0 0 0-.633.273c-.159.183-.26.437-.305.762h1.809v-.07c-.021-.318-.105-.557-.254-.719-.148-.164-.354-.246-.617-.246zm4.918 2.395c0-.17-.07-.299-.211-.387-.138-.089-.368-.167-.691-.235a3.54 3.54 0 0 1-.809-.257c-.474-.23-.711-.562-.711-.996 0-.365.154-.67.461-.915.307-.244.698-.367 1.172-.367.505 0 .913.125 1.223.375.312.25.468.575.468.973h-.949a.58.58 0 0 0-.203-.453c-.135-.123-.315-.184-.539-.184a.848.848 0 0 0-.512.145.457.457 0 0 0-.195.387c0 .145.061.259.183.339.123.081.37.163.743.246.372.081.664.179.875.293.213.112.371.248.472.407.104.159.157.351.157.578 0 .38-.158.689-.473.926-.315.234-.728.351-1.238.351-.347 0-.655-.062-.926-.187a1.522 1.522 0 0 1-.633-.516 1.22 1.22 0 0 1-.227-.707h.922a.678.678 0 0 0 .254.52c.157.119.364.179.621.179.25 0 .44-.047.571-.14a.448.448 0 0 0 .195-.375zM336.688 290.109h-1.774V295h-.98v-4.891h-1.758v-.797h4.512v.797zm1.816 3.532l.859-2.868h1.012l-1.68 4.868c-.257.711-.695 1.066-1.312 1.066a1.69 1.69 0 0 1-.457-.07v-.735l.179.012c.24 0 .42-.044.54-.133.122-.086.218-.232.289-.437l.136-.364-1.484-4.207h1.023l.895 2.868zm6.121-.711c0 .653-.148 1.175-.445 1.566-.297.388-.696.582-1.196.582-.463 0-.834-.152-1.113-.457v2.004h-.949v-5.852h.875l.039.43c.279-.338.657-.508 1.137-.508.515 0 .919.193 1.211.578.294.383.441.916.441 1.598v.059zm-.945-.082c0-.422-.085-.757-.254-1.004-.167-.248-.406-.371-.719-.371-.388 0-.667.16-.836.48v1.875c.172.328.453.492.844.492a.814.814 0 0 0 .707-.363c.172-.245.258-.615.258-1.109zm3.613 2.23c-.602 0-1.09-.189-1.465-.566-.372-.38-.558-.886-.558-1.516v-.117c0-.422.08-.798.242-1.129a1.87 1.87 0 0 1 .687-.777c.294-.185.623-.278.985-.278.575 0 1.019.184 1.332.551.315.367.472.887.472 1.559v.383h-2.761c.028.348.144.624.347.828.206.203.464.304.774.304.435 0 .789-.175 1.062-.527l.512.488a1.719 1.719 0 0 1-.68.59 2.123 2.123 0 0 1-.949.207zm-.113-3.621a.805.805 0 0 0-.633.273c-.159.183-.261.437-.305.762h1.809v-.07c-.021-.318-.106-.557-.254-.719-.149-.164-.354-.246-.617-.246z"/><rect width="148" height="20" x="660" y="250" fill="#F5F7FA" rx="2"/><rect width="148" height="20" x="496" y="250" fill="#F5F7FA" rx="2"/><rect width="148" height="20" x="332" y="250" fill="#F5F7FA" rx="2"/><path fill="#787F92" d="M664.918 241.148c-.057.607-.281 1.081-.672 1.422-.391.339-.91.508-1.558.508-.454 0-.853-.107-1.2-.32a2.14 2.14 0 0 1-.797-.918c-.187-.396-.285-.856-.293-1.379v-.531c0-.537.095-1.009.286-1.418.19-.409.462-.724.816-.946a2.295 2.295 0 0 1 1.234-.332c.628 0 1.133.171 1.516.512.383.341.605.823.668 1.445h-.984c-.047-.408-.167-.703-.36-.882-.19-.183-.47-.274-.84-.274-.429 0-.76.158-.992.473-.229.312-.346.772-.351 1.379v.504c0 .614.109 1.083.328 1.406.221.323.544.484.969.484.388 0 .679-.087.874-.261.196-.175.32-.465.372-.872h.984zm1.73-1.914c.31-.359.702-.539 1.176-.539.901 0 1.358.515 1.371 1.543V243h-.949v-2.727c0-.291-.064-.497-.191-.617-.125-.122-.31-.183-.555-.183-.38 0-.664.169-.852.507V243h-.949v-6h.949v2.234zm4.52 3.766h-.949v-4.227h.949V243zm-1.008-5.324c0-.146.046-.267.137-.364.094-.096.226-.144.398-.144.172 0 .305.048.399.144a.5.5 0 0 1 .14.364.492.492 0 0 1-.14.359c-.094.094-.227.141-.399.141-.172 0-.304-.047-.398-.141a.502.502 0 0 1-.137-.359zm5.746 3.254c0 .653-.148 1.175-.445 1.566-.297.388-.695.582-1.195.582-.464 0-.835-.152-1.114-.457v2.004h-.949v-5.852h.875l.039.43c.279-.338.658-.508 1.137-.508.516 0 .919.193 1.211.578.294.383.441.916.441 1.598v.059zm-.945-.082c0-.422-.085-.757-.254-1.004-.167-.248-.406-.371-.719-.371-.388 0-.666.16-.836.48v1.875c.172.328.453.492.844.492a.814.814 0 0 0 .707-.363c.172-.245.258-.615.258-1.109zm4.121 1.004c0-.17-.07-.299-.211-.387-.138-.089-.368-.167-.691-.235a3.54 3.54 0 0 1-.809-.257c-.474-.23-.711-.562-.711-.996 0-.365.154-.67.461-.915.307-.244.698-.367 1.172-.367.505 0 .913.125 1.223.375.312.25.468.575.468.973h-.949a.58.58 0 0 0-.203-.453c-.135-.123-.315-.184-.539-.184a.848.848 0 0 0-.512.145.457.457 0 0 0-.195.387c0 .145.061.259.184.339.122.081.369.163.742.246.372.081.664.179.875.293.213.112.371.248.472.407.105.159.157.351.157.578 0 .38-.158.689-.473.926-.315.234-.728.351-1.238.351-.347 0-.655-.062-.926-.187a1.522 1.522 0 0 1-.633-.516 1.22 1.22 0 0 1-.226-.707h.921a.678.678 0 0 0 .254.52c.157.119.364.179.621.179.25 0 .441-.047.571-.14a.448.448 0 0 0 .195-.375zm3.625 1.226c-.602 0-1.09-.189-1.465-.566-.372-.38-.558-.886-.558-1.516v-.117c0-.422.08-.798.242-1.129a1.87 1.87 0 0 1 .687-.777c.295-.185.623-.278.985-.278.575 0 1.019.184 1.332.551.315.367.472.887.472 1.559v.383h-2.761c.028.348.144.624.347.828.206.203.464.304.774.304.435 0 .789-.175 1.062-.527l.512.488a1.719 1.719 0 0 1-.68.59 2.123 2.123 0 0 1-.949.207zm-.113-3.621a.805.805 0 0 0-.633.273c-.159.183-.26.437-.305.762h1.809v-.07c-.021-.318-.106-.557-.254-.719-.149-.164-.354-.246-.617-.246zm3.738-1.711v1.027h.746v.704h-.746v2.359c0 .161.031.279.094.352.065.07.179.105.344.105.109 0 .22-.013.332-.039v.734c-.217.06-.425.09-.625.09-.73 0-1.094-.402-1.094-1.207v-2.394h-.695v-.704h.695v-1.027h.949zm7.434.363h-1.774V243h-.98v-4.891h-1.758v-.797h4.512v.797zm1.816 3.532l.859-2.868h1.012l-1.68 4.868c-.257.711-.695 1.066-1.312 1.066-.138 0-.29-.023-.457-.07v-.735l.18.012c.239 0 .419-.044.539-.133.122-.086.218-.232.289-.437l.136-.364-1.484-4.207h1.024l.894 2.868zm6.121-.711c0 .653-.148 1.175-.445 1.566-.297.388-.696.582-1.196.582-.463 0-.834-.152-1.113-.457v2.004H698v-5.852h.875l.039.43c.279-.338.658-.508 1.137-.508.515 0 .919.193 1.211.578.294.383.441.916.441 1.598v.059zm-.945-.082c0-.422-.085-.757-.254-1.004-.167-.248-.406-.371-.719-.371-.388 0-.667.16-.836.48v1.875c.172.328.453.492.844.492a.814.814 0 0 0 .707-.363c.172-.245.258-.615.258-1.109zm3.613 2.23c-.601 0-1.09-.189-1.465-.566-.372-.38-.558-.886-.558-1.516v-.117c0-.422.08-.798.242-1.129a1.87 1.87 0 0 1 .687-.777c.295-.185.623-.278.985-.278.575 0 1.019.184 1.332.551.315.367.472.887.472 1.559v.383h-2.761c.028.348.144.624.347.828.206.203.464.304.774.304.435 0 .789-.175 1.062-.527l.512.488a1.719 1.719 0 0 1-.68.59 2.123 2.123 0 0 1-.949.207zm-.113-3.621a.805.805 0 0 0-.633.273c-.159.183-.26.437-.305.762h1.809v-.07c-.021-.318-.106-.557-.254-.719-.148-.164-.354-.246-.617-.246zM500.918 241.148c-.057.607-.281 1.081-.672 1.422-.391.339-.91.508-1.558.508-.454 0-.853-.107-1.2-.32a2.14 2.14 0 0 1-.797-.918c-.187-.396-.285-.856-.293-1.379v-.531c0-.537.095-1.009.286-1.418.19-.409.462-.724.816-.946a2.295 2.295 0 0 1 1.234-.332c.628 0 1.133.171 1.516.512.383.341.605.823.668 1.445h-.984c-.047-.408-.167-.703-.36-.882-.19-.183-.47-.274-.84-.274-.429 0-.76.158-.992.473-.229.312-.346.772-.351 1.379v.504c0 .614.109 1.083.328 1.406.221.323.544.484.969.484.388 0 .679-.087.874-.261.196-.175.32-.465.372-.872h.984zm1.73-1.914c.31-.359.702-.539 1.176-.539.901 0 1.358.515 1.371 1.543V243h-.949v-2.727c0-.291-.064-.497-.191-.617-.125-.122-.31-.183-.555-.183-.38 0-.664.169-.852.507V243h-.949v-6h.949v2.234zm4.52 3.766h-.949v-4.227h.949V243zm-1.008-5.324c0-.146.046-.267.137-.364.094-.096.226-.144.398-.144.172 0 .305.048.399.144a.5.5 0 0 1 .14.364.492.492 0 0 1-.14.359c-.094.094-.227.141-.399.141-.172 0-.304-.047-.398-.141a.502.502 0 0 1-.137-.359zm5.746 3.254c0 .653-.148 1.175-.445 1.566-.297.388-.695.582-1.195.582-.464 0-.835-.152-1.114-.457v2.004h-.949v-5.852h.875l.039.43c.279-.338.658-.508 1.137-.508.516 0 .919.193 1.211.578.294.383.441.916.441 1.598v.059zm-.945-.082c0-.422-.085-.757-.254-1.004-.167-.248-.406-.371-.719-.371-.388 0-.666.16-.836.48v1.875c.172.328.453.492.844.492a.814.814 0 0 0 .707-.363c.172-.245.258-.615.258-1.109zm4.121 1.004c0-.17-.07-.299-.211-.387-.138-.089-.368-.167-.691-.235a3.54 3.54 0 0 1-.809-.257c-.474-.23-.711-.562-.711-.996 0-.365.154-.67.461-.915.307-.244.698-.367 1.172-.367.505 0 .913.125 1.223.375.312.25.468.575.468.973h-.949a.58.58 0 0 0-.203-.453c-.135-.123-.315-.184-.539-.184a.848.848 0 0 0-.512.145.457.457 0 0 0-.195.387c0 .145.061.259.184.339.122.081.369.163.742.246.372.081.664.179.875.293.213.112.371.248.472.407.105.159.157.351.157.578 0 .38-.158.689-.473.926-.315.234-.728.351-1.238.351-.347 0-.655-.062-.926-.187a1.522 1.522 0 0 1-.633-.516 1.22 1.22 0 0 1-.226-.707h.921a.678.678 0 0 0 .254.52c.157.119.364.179.621.179.25 0 .441-.047.571-.14a.448.448 0 0 0 .195-.375zm3.625 1.226c-.602 0-1.09-.189-1.465-.566-.372-.38-.558-.886-.558-1.516v-.117c0-.422.08-.798.242-1.129a1.87 1.87 0 0 1 .687-.777c.295-.185.623-.278.985-.278.575 0 1.019.184 1.332.551.315.367.472.887.472 1.559v.383h-2.761c.028.348.144.624.347.828.206.203.464.304.774.304.435 0 .789-.175 1.062-.527l.512.488a1.719 1.719 0 0 1-.68.59 2.123 2.123 0 0 1-.949.207zm-.113-3.621a.805.805 0 0 0-.633.273c-.159.183-.26.437-.305.762h1.809v-.07c-.021-.318-.106-.557-.254-.719-.149-.164-.354-.246-.617-.246zm3.738-1.711v1.027h.746v.704h-.746v2.359c0 .161.031.279.094.352.065.07.179.105.344.105.109 0 .22-.013.332-.039v.734c-.217.06-.425.09-.625.09-.73 0-1.094-.402-1.094-1.207v-2.394h-.695v-.704h.695v-1.027h.949zm5.563 4.016l1.445-4.45h1.086L528.379 243h-.957l-2.039-5.688h1.082l1.43 4.45zm4.773 1.316c-.602 0-1.09-.189-1.465-.566-.372-.38-.558-.886-.558-1.516v-.117c0-.422.08-.798.242-1.129a1.87 1.87 0 0 1 .687-.777c.294-.185.623-.278.985-.278.575 0 1.019.184 1.332.551.315.367.472.887.472 1.559v.383h-2.761c.028.348.144.624.347.828.206.203.464.304.774.304.435 0 .789-.175 1.062-.527l.512.488a1.719 1.719 0 0 1-.68.59 2.123 2.123 0 0 1-.949.207zm-.113-3.621a.805.805 0 0 0-.633.273c-.159.183-.261.437-.305.762h1.809v-.07c-.021-.318-.106-.557-.254-.719-.149-.164-.354-.246-.617-.246zm3.429-.684l.028.489c.312-.378.722-.567 1.23-.567.88 0 1.328.504 1.344 1.512V243h-.949v-2.738c0-.269-.059-.466-.176-.594-.115-.13-.303-.195-.566-.195-.383 0-.668.173-.856.519V243h-.949v-4.227h.894zm3.395 2.082c0-.651.151-1.173.453-1.566.302-.396.707-.594 1.215-.594.448 0 .81.157 1.086.469V237h.949v6h-.859l-.047-.438c-.284.344-.663.516-1.137.516-.495 0-.896-.199-1.203-.598-.305-.398-.457-.94-.457-1.625zm.949.083c0 .429.082.765.246 1.007.167.24.403.36.707.36.388 0 .672-.173.852-.52v-1.805c-.175-.338-.456-.507-.844-.507a.81.81 0 0 0-.711.367c-.167.242-.25.608-.25 1.098zm3.567-.09c0-.414.082-.787.246-1.118a1.78 1.78 0 0 1 .691-.765c.297-.18.638-.27 1.023-.27.571 0 1.033.184 1.387.551.357.367.55.854.578 1.461l.004.223c0 .416-.081.789-.242 1.117a1.766 1.766 0 0 1-.687.762 1.96 1.96 0 0 1-1.032.269c-.596 0-1.074-.198-1.433-.594-.357-.398-.535-.928-.535-1.589v-.047zm.949.082c0 .435.09.776.269 1.023.18.245.43.367.75.367a.86.86 0 0 0 .746-.375c.18-.25.27-.616.27-1.097 0-.427-.093-.766-.277-1.016a.876.876 0 0 0-.747-.375.871.871 0 0 0-.738.371c-.182.245-.273.612-.273 1.102zm5.996-1.289a2.332 2.332 0 0 0-.387-.032c-.435 0-.728.167-.879.5V243h-.949v-4.227h.906l.024.473c.229-.367.547-.551.953-.551a.9.9 0 0 1 .336.055l-.004.891zM333.859 237.312l1.641 4.36 1.637-4.36h1.277V243h-.984v-1.875l.097-2.508-1.679 4.383h-.707l-1.676-4.379.097 2.504V243h-.984v-5.688h1.281zM342.02 243a1.439 1.439 0 0 1-.11-.395 1.474 1.474 0 0 1-1.109.473c-.425 0-.771-.121-1.039-.363a1.16 1.16 0 0 1-.403-.899c0-.45.167-.795.5-1.035.336-.242.815-.363 1.438-.363h.582v-.277c0-.219-.061-.394-.184-.524-.122-.133-.308-.199-.558-.199a.834.834 0 0 0-.532.164.497.497 0 0 0-.207.41h-.949c0-.232.077-.448.231-.648.153-.203.362-.362.625-.477.265-.114.561-.172.886-.172.495 0 .89.125 1.184.375.294.248.445.597.453 1.047v1.906c0 .381.054.684.16.911V243h-.968zm-1.043-.684c.187 0 .363-.045.527-.136a.906.906 0 0 0 .375-.368v-.796h-.512c-.351 0-.616.061-.793.183a.596.596 0 0 0-.265.52c0 .182.059.328.179.437.123.107.285.16.489.16zm3.726-3.543l.027.489c.313-.378.723-.567 1.231-.567.88 0 1.328.504 1.344 1.512V243h-.95v-2.738c0-.269-.058-.466-.175-.594-.115-.13-.304-.195-.567-.195-.383 0-.668.173-.855.519V243h-.949v-4.227h.894zm6.133 3.813c-.279.328-.675.492-1.188.492-.458 0-.806-.134-1.043-.402-.234-.268-.351-.656-.351-1.164v-2.739h.949v2.727c0 .536.223.805.668.805.461 0 .772-.166.934-.496v-3.036h.949V243h-.895l-.023-.414zm2.219.414v-3.523h-.645v-.704h.645v-.386c0-.469.13-.831.39-1.086.261-.255.625-.383 1.094-.383.167 0 .344.023.531.07l-.023.742a1.935 1.935 0 0 0-.363-.031c-.454 0-.68.233-.68.699v.375h.859v.704h-.859V243h-.949zm5.027 0a1.445 1.445 0 0 1-.109-.395 1.475 1.475 0 0 1-1.11.473c-.424 0-.771-.121-1.039-.363a1.163 1.163 0 0 1-.402-.899c0-.45.167-.795.5-1.035.336-.242.815-.363 1.437-.363h.582v-.277c0-.219-.061-.394-.183-.524-.123-.133-.309-.199-.559-.199a.831.831 0 0 0-.531.164.497.497 0 0 0-.207.41h-.949c0-.232.077-.448.23-.648.154-.203.362-.362.625-.477.266-.114.561-.172.887-.172.495 0 .889.125 1.184.375.294.248.445.597.453 1.047v1.906c0 .381.053.684.16.911V243h-.969zm-1.043-.684c.188 0 .363-.045.527-.136a.906.906 0 0 0 .375-.368v-.796h-.511c-.352 0-.616.061-.793.183a.597.597 0 0 0-.266.52c0 .182.06.328.18.437.122.107.285.16.488.16zm4.582.004a.858.858 0 0 0 .59-.207.705.705 0 0 0 .25-.511h.894c-.01.263-.092.509-.246.738a1.622 1.622 0 0 1-.625.539 1.857 1.857 0 0 1-.851.199c-.591 0-1.06-.191-1.406-.574-.347-.383-.52-.912-.52-1.586v-.098c0-.643.172-1.157.516-1.543.343-.388.812-.582 1.406-.582.503 0 .911.147 1.226.442.318.291.485.675.5 1.152h-.894a.867.867 0 0 0-.25-.598.793.793 0 0 0-.59-.234c-.307 0-.544.112-.711.336-.167.221-.251.559-.254 1.012v.152c0 .458.082.801.246 1.027.167.224.407.336.719.336zm3.641-4.574v1.027h.746v.704h-.746v2.359c0 .161.031.279.093.352.066.07.18.105.344.105.11 0 .22-.013.332-.039v.734a2.33 2.33 0 0 1-.625.09c-.729 0-1.094-.402-1.094-1.207v-2.394h-.695v-.704h.695v-1.027h.95zm4.035 4.84c-.279.328-.675.492-1.188.492-.458 0-.806-.134-1.043-.402-.234-.268-.351-.656-.351-1.164v-2.739h.949v2.727c0 .536.223.805.668.805.461 0 .772-.166.934-.496v-3.036h.949V243h-.895l-.023-.414zm4.098-2.945a2.332 2.332 0 0 0-.387-.032c-.435 0-.728.167-.879.5V243h-.949v-4.227h.906l.023.473c.23-.367.547-.551.953-.551.136 0 .248.019.336.055l-.003.891zm2.382 3.437c-.601 0-1.089-.189-1.465-.566-.372-.38-.558-.886-.558-1.516v-.117c0-.422.081-.798.242-1.129.164-.333.393-.592.688-.777a1.81 1.81 0 0 1 .984-.278c.575 0 1.02.184 1.332.551.315.367.473.887.473 1.559v.383h-2.762c.029.348.144.624.348.828.205.203.463.304.773.304.435 0 .789-.175 1.063-.527l.511.488a1.723 1.723 0 0 1-.679.59 2.13 2.13 0 0 1-.95.207zm-.113-3.621a.808.808 0 0 0-.633.273c-.159.183-.26.437-.304.762h1.808v-.07c-.021-.318-.105-.557-.254-.719-.148-.164-.354-.246-.617-.246z"/><rect width="224" height="20" x="332" y="198" fill="#F5F7FA" rx="2"/><path fill="#787F92" d="M337.09 191h-.988l-2.536-4.035V191h-.988v-5.688h.988l2.543 4.051v-4.051h.981V191zm3.601 0a1.483 1.483 0 0 1-.109-.395 1.474 1.474 0 0 1-1.109.473c-.425 0-.771-.121-1.039-.363a1.16 1.16 0 0 1-.403-.899c0-.45.167-.795.5-1.035.336-.242.815-.363 1.438-.363h.582v-.277c0-.219-.061-.394-.184-.524-.122-.133-.308-.199-.558-.199a.832.832 0 0 0-.532.164.497.497 0 0 0-.207.41h-.949c0-.232.077-.448.231-.648.153-.203.362-.362.625-.477.265-.114.561-.172.886-.172.495 0 .89.125 1.184.375.294.248.445.597.453 1.047v1.906c0 .381.053.684.16.911V191h-.969zm-1.043-.684c.188 0 .364-.045.528-.136a.917.917 0 0 0 .375-.368v-.796h-.512c-.351 0-.616.061-.793.183a.597.597 0 0 0-.266.52c0 .182.06.328.18.437.123.107.285.16.488.16zm3.739-3.543l.027.442c.297-.347.703-.52 1.219-.52.565 0 .952.216 1.16.649.307-.433.74-.649 1.297-.649.466 0 .812.129 1.039.387.229.258.346.638.351 1.141V191h-.949v-2.75c0-.268-.058-.465-.176-.59-.117-.125-.311-.187-.582-.187a.792.792 0 0 0-.531.175.918.918 0 0 0-.285.454l.004 2.898h-.949v-2.781c-.013-.498-.267-.746-.762-.746-.38 0-.65.155-.809.465V191h-.949v-4.227h.895zm7.929 4.305c-.601 0-1.089-.189-1.464-.566-.373-.38-.559-.886-.559-1.516v-.117c0-.422.081-.798.242-1.129.164-.333.393-.592.688-.777a1.81 1.81 0 0 1 .984-.278c.576 0 1.02.184 1.332.551.315.367.473.887.473 1.559v.383h-2.762c.029.348.145.624.348.828.205.203.463.304.773.304.435 0 .789-.175 1.063-.527l.511.488a1.723 1.723 0 0 1-.679.59 2.13 2.13 0 0 1-.95.207zm-.113-3.621a.808.808 0 0 0-.633.273c-.159.183-.26.437-.304.762h1.808v-.07c-.021-.318-.105-.557-.254-.719-.148-.164-.354-.246-.617-.246z"/><path fill="#343F5D" d="M338.37 148.011h-3.874l-.702 1.989h-1.586l3.38-9.035h1.703l3.367 9.035h-1.586l-.702-1.989zm-.416-1.144l-1.521-4.29-1.521 4.29h3.042zm6.677-4.121c.65 0 1.205.16 1.664.481.46.321.78.745.962 1.274v-4.121h1.495V150h-1.495v-1.664a2.512 2.512 0 0 1-.962 1.274c-.459.321-1.014.481-1.664.481a3.207 3.207 0 0 1-1.677-.442c-.485-.295-.866-.719-1.144-1.274-.277-.555-.416-1.209-.416-1.963 0-.745.139-1.395.416-1.95.278-.555.659-.979 1.144-1.274a3.207 3.207 0 0 1 1.677-.442zm.455 1.3c-.658 0-1.187.212-1.586.637-.39.416-.585.992-.585 1.729 0 .737.195 1.317.585 1.742.399.416.928.624 1.586.624.416 0 .789-.095 1.118-.286.33-.199.59-.477.78-.832.191-.355.286-.771.286-1.248 0-.468-.095-.88-.286-1.235a2.007 2.007 0 0 0-.78-.832 2.119 2.119 0 0 0-1.118-.299zm8.318-1.3c.65 0 1.204.16 1.664.481.459.321.78.745.962 1.274v-4.121h1.495V150h-1.495v-1.664a2.517 2.517 0 0 1-.962 1.274c-.46.321-1.014.481-1.664.481a3.207 3.207 0 0 1-1.677-.442c-.486-.295-.867-.719-1.144-1.274-.278-.555-.416-1.209-.416-1.963 0-.745.138-1.395.416-1.95.277-.555.658-.979 1.144-1.274a3.207 3.207 0 0 1 1.677-.442zm.455 1.3c-.659 0-1.188.212-1.586.637-.39.416-.585.992-.585 1.729 0 .737.195 1.317.585 1.742.398.416.927.624 1.586.624.416 0 .788-.095 1.118-.286a2.13 2.13 0 0 0 .78-.832c.19-.355.286-.771.286-1.248 0-.468-.096-.88-.286-1.235a2.02 2.02 0 0 0-.78-.832 2.121 2.121 0 0 0-1.118-.299zm15.784-3.224V150h-1.495v-4.121h-4.316V150h-1.482v-9.178h1.482v3.848h4.316v-3.848h1.495zm4.67 1.924c.65 0 1.205.16 1.664.481.459.321.784.745.975 1.274v-1.664h1.482V150h-1.482v-1.664a2.593 2.593 0 0 1-.975 1.274c-.459.321-1.014.481-1.664.481a3.207 3.207 0 0 1-1.677-.442c-.485-.295-.867-.719-1.144-1.274-.277-.555-.416-1.209-.416-1.963 0-.745.139-1.395.416-1.95.277-.555.659-.979 1.144-1.274a3.207 3.207 0 0 1 1.677-.442zm.455 1.3c-.659 0-1.187.212-1.586.637-.39.416-.585.992-.585 1.729 0 .737.195 1.317.585 1.742.399.416.927.624 1.586.624.416 0 .789-.095 1.118-.286a2.13 2.13 0 0 0 .78-.832c.191-.355.286-.771.286-1.248 0-.468-.095-.88-.286-1.235a2.02 2.02 0 0 0-.78-.832 2.119 2.119 0 0 0-1.118-.299zm6.926.195c.243-.468.59-.836 1.04-1.105.451-.277.971-.416 1.56-.416v1.612h-.442c-.65 0-1.174.16-1.573.481-.39.312-.585.832-.585 1.56V150h-1.482v-7.163h1.482v1.404zm6.584-1.495c.65 0 1.204.16 1.664.481.459.321.78.745.962 1.274v-4.121h1.495V150h-1.495v-1.664a2.517 2.517 0 0 1-.962 1.274c-.46.321-1.014.481-1.664.481a3.207 3.207 0 0 1-1.677-.442c-.486-.295-.867-.719-1.144-1.274-.278-.555-.416-1.209-.416-1.963 0-.745.138-1.395.416-1.95.277-.555.658-.979 1.144-1.274a3.207 3.207 0 0 1 1.677-.442zm.455 1.3c-.659 0-1.188.212-1.586.637-.39.416-.585.992-.585 1.729 0 .737.195 1.317.585 1.742.398.416.927.624 1.586.624.416 0 .788-.095 1.118-.286a2.13 2.13 0 0 0 .78-.832c.19-.355.286-.771.286-1.248 0-.468-.096-.88-.286-1.235a2.02 2.02 0 0 0-.78-.832 2.121 2.121 0 0 0-1.118-.299zm15.48-1.209L402.224 150h-1.638l-1.768-5.538-1.794 5.538h-1.625l-1.989-7.163h1.495l1.365 5.798 1.794-5.798h1.56l1.82 5.798 1.365-5.798h1.404zm3.882-.091c.65 0 1.205.16 1.664.481.46.321.785.745.975 1.274v-1.664h1.482V150h-1.482v-1.664c-.19.529-.515.953-.975 1.274-.459.321-1.014.481-1.664.481a3.207 3.207 0 0 1-1.677-.442c-.485-.295-.866-.719-1.144-1.274-.277-.555-.416-1.209-.416-1.963 0-.745.139-1.395.416-1.95.278-.555.659-.979 1.144-1.274a3.207 3.207 0 0 1 1.677-.442zm.455 1.3c-.658 0-1.187.212-1.586.637-.39.416-.585.992-.585 1.729 0 .737.195 1.317.585 1.742.399.416.928.624 1.586.624.416 0 .789-.095 1.118-.286.33-.199.59-.477.78-.832.191-.355.286-.771.286-1.248 0-.468-.095-.88-.286-1.235a2.007 2.007 0 0 0-.78-.832 2.119 2.119 0 0 0-1.118-.299zm6.927.195a2.714 2.714 0 0 1 1.04-1.105c.45-.277.97-.416 1.56-.416v1.612h-.442c-.65 0-1.175.16-1.573.481-.39.312-.585.832-.585 1.56V150h-1.482v-7.163h1.482v1.404zm10.366 1.833c0 .243-.017.455-.052.637h-5.512c.026.737.23 1.283.611 1.638s.854.533 1.417.533c.494 0 .91-.126 1.248-.377.347-.251.559-.585.637-1.001h1.586a3.081 3.081 0 0 1-.598 1.339c-.303.39-.698.698-1.183.923a3.937 3.937 0 0 1-1.625.325c-.693 0-1.309-.147-1.846-.442a3.151 3.151 0 0 1-1.248-1.274c-.303-.555-.455-1.209-.455-1.963 0-.745.152-1.395.455-1.95a3.151 3.151 0 0 1 1.248-1.274c.537-.295 1.153-.442 1.846-.442.702 0 1.313.147 1.833.442.529.286.932.685 1.209 1.196.286.503.429 1.066.429 1.69zm-1.495-.039c.017-.468-.065-.858-.247-1.17a1.579 1.579 0 0 0-.728-.702 2.155 2.155 0 0 0-1.001-.234c-.581 0-1.066.178-1.456.533-.39.355-.602.88-.637 1.573h4.069z"/><rect width="40" height="8" x="332" y="118" fill="#EBF0F5" rx="1"/><rect width="52" height="8" x="380" y="118" fill="#EBF0F5" rx="1"/><rect width="80" height="8" x="440" y="118" fill="#EBF0F5" rx="1"/><path fill="#F5F8FC" d="M160 70a4 4 0 0 1 4-4h144v440H164a4 4 0 0 1-4-4V70z"/><rect width="12" height="12" x="184" y="90" fill="#C5D2E0" rx="2"/><rect width="48" height="8" x="208" y="92" fill="#C5D2E0" rx="2"/><rect width="12" height="12" x="184" y="118" fill="#00AFEF" rx="2"/><rect width="72" height="8" x="208" y="120" fill="#00AFEF" rx="2"/><rect width="12" height="12" x="184" y="146" fill="#C5D2E0" rx="2"/><rect width="48" height="8" x="208" y="148" fill="#C5D2E0" rx="2"/><rect width="12" height="12" x="184" y="174" fill="#C5D2E0" rx="2"/><rect width="72" height="8" x="208" y="176" fill="#C5D2E0" rx="2"/><rect width="12" height="12" x="184" y="202" fill="#C5D2E0" rx="2"/><rect width="48" height="8" x="208" y="204" fill="#C5D2E0" rx="2"/><rect width="12" height="12" x="184" y="230" fill="#C5D2E0" rx="2"/><rect width="72" height="8" x="208" y="232" fill="#C5D2E0" rx="2"/><circle cx="336" cy="94" r="3.5" stroke="#C5D2E0"/><path stroke="#C5D2E0" d="M343 101l-4.5-4.5"/><path fill="#4E76A3" fill-opacity=".2" d="M136 462c135.047.086 188.283 7.903 196 52H136v-52z" filter="url(#filter2_f)"/><path fill="#001540" fill-opacity=".44" d="M80 510h232v36H80z" filter="url(#filter3_f)"/><ellipse cx="118" cy="540" fill="#474B57" rx="18" ry="12"/><ellipse cx="274" cy="538" fill="#474B57" rx="18" ry="12"/><g filter="url(#filter4_ddii)"><path fill="url(#paint0_linear)" d="M52 516.059c0 6.365 2.529 12.47 7.03 16.97l3.597 3.598A31.997 31.997 0 0 0 85.255 546h221.49a32 32 0 0 0 22.628-9.373l3.598-3.598a24 24 0 0 0 7.029-16.97V482c0-11.046-8.954-20-20-20H72c-11.046 0-20 8.954-20 20v34.059z"/><path fill="#EBF2FA" d="M52 516.059c0 6.365 2.529 12.47 7.03 16.97l3.597 3.598A31.997 31.997 0 0 0 85.255 546h221.49a32 32 0 0 0 22.628-9.373l3.598-3.598a24 24 0 0 0 7.029-16.97V482c0-11.046-8.954-20-20-20H72c-11.046 0-20 8.954-20 20v34.059z"/><path fill="url(#paint1_linear)" d="M52 516.059c0 6.365 2.529 12.47 7.03 16.97l3.597 3.598A31.997 31.997 0 0 0 85.255 546h221.49a32 32 0 0 0 22.628-9.373l3.598-3.598a24 24 0 0 0 7.029-16.97V482c0-11.046-8.954-20-20-20H72c-11.046 0-20 8.954-20 20v34.059z"/></g><path fill="url(#paint2_linear)" d="M58 532l4.627 4.627A31.997 31.997 0 0 0 85.255 546h221.49a32 32 0 0 0 22.628-9.373L334 532l-138 1-138-1z"/><path fill="url(#paint3_linear)" d="M58 532l4.627 4.627A31.997 31.997 0 0 0 85.255 546h221.49a32 32 0 0 0 22.628-9.373L334 532l-138 1-138-1z"/><path fill="url(#paint4_linear)" d="M58 532l4.627 4.627A31.997 31.997 0 0 0 85.255 546h221.49a32 32 0 0 0 22.628-9.373L334 532l-138 1-138-1z"/><path fill="#6A6A6A" d="M192.685 494.573a.945.945 0 0 0-.774-.265.84.84 0 0 0-.536.295 9.616 9.616 0 0 0-2.272 7.216c.099.993.353 1.965.755 2.883a1.344 1.344 0 0 1-.254 1.488 1.351 1.351 0 0 1-.147.146l-.004.004a1.464 1.464 0 0 1-1.293.382 1.467 1.467 0 0 1-.632-.286 1.404 1.404 0 0 1-.421-.539 12.404 12.404 0 0 1-1.061-5.032 12.494 12.494 0 0 1 3.283-8.437.824.824 0 0 0-.037-1.155l-.904-.879a.884.884 0 0 0-1.26.034 15.524 15.524 0 0 0-3.804 7.471 15.273 15.273 0 0 0 1.975 10.979c.06.098.108.203.143.312a1.421 1.421 0 0 1-.088 1.029l-.019.038a1.478 1.478 0 0 1-.224.302 1.348 1.348 0 0 1-.121.118l-.003.003c-.037.036-.076.07-.117.102h-.002a1.537 1.537 0 0 1-1.677.063 1.489 1.489 0 0 1-.429-.392l-.017-.023-.017-.027a18.19 18.19 0 0 1-2.606-11.431c.419-3.984 2.148-7.73 4.931-10.682a.83.83 0 0 0-.026-1.166l-.877-.853a.929.929 0 0 0-.748-.267.843.843 0 0 0-.531.266c-3.293 3.466-5.323 7.889-5.775 12.587a21.03 21.03 0 0 0 3.273 13.41v.003a4.515 4.515 0 0 0 1.71 1.326c.672.3 1.41.436 2.149.397h.003c.066.003.132.007.2.007a4.345 4.345 0 0 0 3.027-1.217 4.106 4.106 0 0 0 1.256-2.941v-.003a4.347 4.347 0 0 0 3.302-1.208 4.104 4.104 0 0 0 1.254-2.943c0-.754-.234-1.444-.597-2.038v-.003a6.516 6.516 0 0 1-.302-.791 6.725 6.725 0 0 1-.17-3.303 6.81 6.81 0 0 1 1.429-3.001.829.829 0 0 0 .191-.574.832.832 0 0 0-.254-.55l-.882-.855zM199.202 507.672v-12.543a.833.833 0 0 0-.256-.598.88.88 0 0 0-.614-.248h-1.469a.88.88 0 0 0-.615.248.837.837 0 0 0-.256.598v12.543a.837.837 0 0 0 .256.597.88.88 0 0 0 .615.248h1.469c.23 0 .452-.089.615-.248a.832.832 0 0 0 .255-.597zM216 501.279v-.041a7.015 7.015 0 0 0-.566-2.807 6.873 6.873 0 0 0-1.585-2.279 7.643 7.643 0 0 0-2.417-1.541c-.932-.38-1.954-.57-3.064-.57-1.111 0-2.136.19-3.075.57a7.397 7.397 0 0 0-2.406 1.54 7.15 7.15 0 0 0-1.615 2.319 6.9 6.9 0 0 0-.574 2.809v.042c-.007.964.185 1.92.566 2.81.365.855.904 1.63 1.584 2.279a7.669 7.669 0 0 0 2.417 1.54c.933.38 1.954.57 3.065.57 1.11 0 2.135-.19 3.075-.57a7.388 7.388 0 0 0 2.406-1.539 7.148 7.148 0 0 0 1.614-2.319c.387-.89.583-1.847.575-2.813zm-3.312.039a4.474 4.474 0 0 1-1.203 3.08 3.986 3.986 0 0 1-1.368.941 4.431 4.431 0 0 1-1.748.34 4.303 4.303 0 0 1-3.141-1.303 4.228 4.228 0 0 1-.901-1.396 4.553 4.553 0 0 1-.318-1.701v-.041a4.473 4.473 0 0 1 1.203-3.079c.38-.402.843-.723 1.358-.941a4.406 4.406 0 0 1 1.758-.34 4.318 4.318 0 0 1 1.749.35 4.32 4.32 0 0 1 1.389.95c.394.404.701.879.904 1.399.214.543.322 1.12.319 1.702v.042l-.001-.003z"/><path fill="#4E76A3" fill-opacity=".2" d="M876 530V262h-60v268h60z" filter="url(#filter5_f)"/><g filter="url(#filter6_ddii)"><path fill="#fff" d="M808 254c0-13.255 10.745-24 24-24h108c13.255 0 24 10.745 24 24v272c0 13.255-10.745 24-24 24H832c-13.255 0-24-10.745-24-24V254z"/><path fill="url(#paint5_linear)" d="M808 254c0-13.255 10.745-24 24-24h108c13.255 0 24 10.745 24 24v272c0 13.255-10.745 24-24 24H832c-13.255 0-24-10.745-24-24V254z"/></g><rect width="36" height="4" x="868" y="250" fill="#D8E3F0" rx="2"/><rect width="142" height="241" x="815" y="270" fill="#fff" filter="url(#filter7_d)" rx="2"/><rect width="137" height="29" x="817.5" y="479.5" fill="#fff" stroke="#F0F2F5" rx=".5"/><rect width="32" height="4" x="848" y="488" fill="#C5D2E0" rx="2"/><rect width="56" height="4" x="848" y="496" fill="#EBF0F5" rx="2"/><circle cx="832" cy="494" r="8" fill="#C5D2E0"/><rect width="137" height="29" x="817.5" y="447.5" fill="#fff" stroke="#F0F2F5" rx=".5"/><rect width="32" height="4" x="848" y="456" fill="#C5D2E0" rx="2"/><rect width="56" height="4" x="848" y="464" fill="#EBF0F5" rx="2"/><circle cx="832" cy="462" r="8" fill="#C5D2E0"/><rect width="137" height="29" x="817.5" y="415.5" fill="#fff" stroke="#F0F2F5" rx=".5"/><rect width="32" height="4" x="848" y="424" fill="#00AFEF" rx="2"/><rect width="56" height="4" x="848" y="432" fill="#CCEFFC" rx="2"/><circle cx="832" cy="430" r="8" fill="#00AFEF"/><rect width="137" height="29" x="817.5" y="383.5" fill="#fff" stroke="#F0F2F5" rx=".5"/><rect width="32" height="4" x="848" y="392" fill="#C5D2E0" rx="2"/><rect width="56" height="4" x="848" y="400" fill="#EBF0F5" rx="2"/><circle cx="832" cy="398" r="8" fill="#C5D2E0"/><rect width="138" height="89" x="817" y="292" fill="url(#paint6_linear)" rx="1"/><rect width="12" height="47" x="828" y="318" fill="url(#paint7_linear)" rx="6"/><rect width="12" height="43" x="854" y="322" fill="url(#paint8_linear)" rx="6"/><rect width="12" height="39" x="880" y="326" fill="url(#paint9_linear)" rx="6"/><rect width="12" height="27" x="906" y="338" fill="url(#paint10_linear)" rx="6"/><rect width="12" height="23" x="932" y="342" fill="url(#paint11_linear)" rx="6"/><circle cx="834" cy="364" r="10" fill="#fff"/><circle cx="860" cy="364" r="10" fill="#fff"/><circle cx="886" cy="364" r="10" fill="#fff"/><circle cx="912" cy="364" r="10" fill="#fff"/><circle cx="938" cy="364" r="10" fill="#fff"/><circle cx="886" cy="528" r="12" fill="#fff"/><circle cx="886" cy="528" r="12" fill="#EBF2FA"/><circle cx="886" cy="528" r="12" fill="#D8E3F0"/><path fill="#fff" d="M852.775 301.114V306h-.98v-3.409L850.542 306h-.854l-1.253-3.395V306h-.987v-4.886h1.197l1.484 3.675 1.456-3.675h1.19zm3.211-.126c.462 0 .879.107 1.253.322.378.215.674.516.889.903.219.383.329.817.329 1.302 0 .485-.11.922-.329 1.309a2.304 2.304 0 0 1-.889.903 2.467 2.467 0 0 1-1.253.322c-.462 0-.882-.107-1.26-.322a2.359 2.359 0 0 1-.889-.903 2.65 2.65 0 0 1-.322-1.309c0-.485.107-.919.322-1.302.219-.387.515-.688.889-.903a2.503 2.503 0 0 1 1.26-.322zm0 .91c-.29 0-.544.065-.763.196-.22.131-.392.32-.518.567a1.879 1.879 0 0 0-.182.854c0 .327.06.614.182.861.126.243.298.429.518.56.219.131.473.196.763.196.289 0 .543-.065.763-.196a1.33 1.33 0 0 0 .511-.56 1.87 1.87 0 0 0 .189-.861c0-.327-.063-.611-.189-.854a1.325 1.325 0 0 0-.511-.567 1.462 1.462 0 0 0-.763-.196zm6.608 2.751c0 .252-.063.485-.189.7-.126.21-.313.38-.56.511-.247.126-.548.189-.903.189-.35 0-.663-.058-.938-.175a1.638 1.638 0 0 1-.665-.518 1.5 1.5 0 0 1-.28-.784h1.05a.824.824 0 0 0 .238.504c.14.131.324.196.553.196.205 0 .362-.054.469-.161a.578.578 0 0 0 .168-.427.54.54 0 0 0-.133-.378.955.955 0 0 0-.336-.245 6.075 6.075 0 0 0-.56-.21 5.95 5.95 0 0 1-.756-.301 1.469 1.469 0 0 1-.504-.441c-.135-.191-.203-.441-.203-.749 0-.425.152-.758.455-1.001.308-.247.714-.371 1.218-.371.523 0 .938.126 1.246.378.313.252.49.588.532 1.008h-1.064a.728.728 0 0 0-.224-.434c-.121-.117-.287-.175-.497-.175a.645.645 0 0 0-.441.147c-.112.093-.168.231-.168.413a.54.54 0 0 0 .126.364c.089.093.198.17.329.231.135.061.317.128.546.203.317.112.574.217.77.315.201.098.371.245.511.441s.21.453.21.77zm4.087-3.591v.784h-1.365V306h-.987v-4.158h-1.358v-.784h3.71zm5.078 3.948h-1.981l-.35.994h-1.043l1.82-4.886h1.127l1.813 4.886h-1.043l-.343-.994zm-.266-.749l-.728-2.086-.728 2.086h1.456zm4.417-3.248c.616 0 1.127.159 1.533.476.406.317.675.749.805 1.295h-1.036a1.344 1.344 0 0 0-.504-.63 1.397 1.397 0 0 0-.812-.231c-.261 0-.497.065-.707.196a1.31 1.31 0 0 0-.49.56 1.96 1.96 0 0 0-.175.854c0 .322.059.604.175.847.117.243.28.429.49.56.21.131.446.196.707.196.318 0 .588-.077.812-.231.229-.154.397-.364.504-.63h1.036c-.13.546-.399.978-.805 1.295-.406.317-.917.476-1.533.476-.471 0-.889-.105-1.253-.315a2.227 2.227 0 0 1-.84-.896 2.817 2.817 0 0 1-.294-1.302c0-.49.098-.926.294-1.309.201-.383.481-.679.84-.889.36-.215.777-.322 1.253-.322zm6.439.049v.784h-1.365V306h-.987v-4.158h-1.358v-.784h3.71zm1.53 0V306h-.987v-4.942h.987zm1.586 0l1.323 3.913 1.33-3.913h1.057l-1.75 4.942h-1.267l-1.75-4.942h1.057zm5.23.784v1.281h1.75v.756h-1.75v1.33h1.96V306h-2.947v-4.942h2.947v.784h-1.96zm5.202 2.324V306h-.987v-4.942h1.799c.583 0 1.022.14 1.316.42.299.28.448.66.448 1.141 0 .471-.154.847-.462 1.127-.303.28-.737.42-1.302.42h-.812zm.707-.791c.579 0 .868-.252.868-.756 0-.247-.068-.436-.203-.567-.135-.131-.357-.196-.665-.196h-.707v1.519h.707zM901.69 306l-1.155-1.925h-.434V306h-.987v-4.942h1.883c.574 0 1.01.14 1.309.42.303.28.455.649.455 1.106 0 .373-.105.686-.315.938-.205.252-.504.42-.896.504l1.232 1.974h-1.092zm-1.589-2.604h.812c.565 0 .847-.25.847-.749 0-.238-.07-.422-.21-.553-.135-.135-.348-.203-.637-.203h-.812v1.505zm5.643-2.408c.462 0 .88.107 1.253.322.378.215.675.516.889.903.22.383.329.817.329 1.302 0 .485-.109.922-.329 1.309a2.298 2.298 0 0 1-.889.903 2.464 2.464 0 0 1-1.253.322c-.462 0-.882-.107-1.26-.322a2.373 2.373 0 0 1-.889-.903 2.662 2.662 0 0 1-.322-1.309c0-.485.108-.919.322-1.302.22-.387.516-.688.889-.903a2.503 2.503 0 0 1 1.26-.322zm0 .91c-.289 0-.543.065-.763.196-.219.131-.392.32-.518.567a1.892 1.892 0 0 0-.182.854c0 .327.061.614.182.861.126.243.299.429.518.56.22.131.474.196.763.196.29 0 .544-.065.763-.196.22-.131.39-.317.511-.56a1.87 1.87 0 0 0 .189-.861c0-.327-.063-.611-.189-.854a1.312 1.312 0 0 0-.511-.567 1.457 1.457 0 0 0-.763-.196zm6.28-.84v.784h-2.079v1.323h1.666v.756h-1.666V306h-.987v-4.942h3.066zm1.653 0V306h-.987v-4.942h.987zm1.88 4.186h1.659V306h-2.646v-4.942h.987v4.186zm3.233-3.402v1.281h1.75v.756h-1.75v1.33h1.96V306h-2.947v-4.942h2.947v.784h-1.96zm6.086 2.807c0 .252-.063.485-.189.7-.126.21-.312.38-.56.511-.247.126-.548.189-.903.189a2.38 2.38 0 0 1-.938-.175 1.638 1.638 0 0 1-.665-.518 1.508 1.508 0 0 1-.28-.784h1.05a.83.83 0 0 0 .238.504c.14.131.325.196.553.196.206 0 .362-.054.469-.161a.578.578 0 0 0 .168-.427.54.54 0 0 0-.133-.378.938.938 0 0 0-.336-.245 6.075 6.075 0 0 0-.56-.21 5.95 5.95 0 0 1-.756-.301 1.469 1.469 0 0 1-.504-.441c-.135-.191-.203-.441-.203-.749 0-.425.152-.758.455-1.001.308-.247.714-.371 1.218-.371.523 0 .938.126 1.246.378.313.252.49.588.532 1.008h-1.064a.722.722 0 0 0-.224-.434c-.121-.117-.287-.175-.497-.175a.645.645 0 0 0-.441.147c-.112.093-.168.231-.168.413a.54.54 0 0 0 .126.364c.089.093.199.17.329.231.136.061.318.128.546.203.318.112.574.217.77.315.201.098.371.245.511.441s.21.453.21.77z"/><defs><filter id="filter0_ddii" width="816" height="572" x="88" y="0" color-interpolation-filters="sRGB" filterUnits="userSpaceOnUse"><feFlood flood-opacity="0" result="BackgroundImageFix"/><feColorMatrix in="SourceAlpha" values="0 0 0 0 0 0 0 0 0 0 0 0 0 0 0 0 0 0 127 0"/><feOffset dy="2"/><feGaussianBlur stdDeviation="2"/><feColorMatrix values="0 0 0 0 0 0 0 0 0 0.0823529 0 0 0 0 0.25098 0 0 0 0.16 0"/><feBlend in2="BackgroundImageFix" result="effect1_dropShadow"/><feColorMatrix in="SourceAlpha" values="0 0 0 0 0 0 0 0 0 0 0 0 0 0 0 0 0 0 127 0"/><feOffset dy="6"/><feGaussianBlur stdDeviation="16"/><feColorMatrix values="0 0 0 0 0 0 0 0 0 0.0823529 0 0 0 0 0.25098 0 0 0 0.2 0"/><feBlend in2="effect1_dropShadow" result="effect2_dropShadow"/><feBlend in="SourceGraphic" in2="effect2_dropShadow" result="shape"/><feColorMatrix in="SourceAlpha" result="hardAlpha" values="0 0 0 0 0 0 0 0 0 0 0 0 0 0 0 0 0 0 127 0"/><feOffset dy="-4"/><feGaussianBlur stdDeviation="6"/><feComposite in2="hardAlpha" k2="-1" k3="1" operator="arithmetic"/><feColorMatrix values="0 0 0 0 0.432 0 0 0 0 0.488 0 0 0 0 0.6 0 0 0 0.24 0"/><feBlend in2="shape" result="effect3_innerShadow"/><feColorMatrix in="SourceAlpha" result="hardAlpha" values="0 0 0 0 0 0 0 0 0 0 0 0 0 0 0 0 0 0 127 0"/><feOffset/><feGaussianBlur stdDeviation="2"/><feComposite in2="hardAlpha" k2="-1" k3="1" operator="arithmetic"/><feColorMatrix values="0 0 0 0 0.432 0 0 0 0 0.488 0 0 0 0 0.6 0 0 0 0.24 0"/><feBlend in2="effect3_innerShadow" result="effect4_innerShadow"/></filter><filter id="filter1_d" width="678" height="446" x="157" y="64" color-interpolation-filters="sRGB" filterUnits="userSpaceOnUse"><feFlood flood-opacity="0" result="BackgroundImageFix"/><feColorMatrix in="SourceAlpha" values="0 0 0 0 0 0 0 0 0 0 0 0 0 0 0 0 0 0 127 0"/><feOffset dy="1"/><feGaussianBlur stdDeviation="1.5"/><feColorMatrix values="0 0 0 0 0.288 0 0 0 0 0.352 0 0 0 0 0.48 0 0 0 0.24 0"/><feBlend in2="BackgroundImageFix" result="effect1_dropShadow"/><feBlend in="SourceGraphic" in2="effect1_dropShadow" result="shape"/></filter><filter id="filter2_f" width="380" height="236" x="44" y="370" color-interpolation-filters="sRGB" filterUnits="userSpaceOnUse"><feFlood flood-opacity="0" result="BackgroundImageFix"/><feBlend in="SourceGraphic" in2="BackgroundImageFix" result="shape"/><feGaussianBlur result="effect1_foregroundBlur" stdDeviation="46"/></filter><filter id="filter3_f" width="392" height="196" x="0" y="430" color-interpolation-filters="sRGB" filterUnits="userSpaceOnUse"><feFlood flood-opacity="0" result="BackgroundImageFix"/><feBlend in="SourceGraphic" in2="BackgroundImageFix" result="shape"/><feGaussianBlur result="effect1_foregroundBlur" stdDeviation="40"/></filter><filter id="filter4_ddii" width="352" height="148" x="20" y="436" color-interpolation-filters="sRGB" filterUnits="userSpaceOnUse"><feFlood flood-opacity="0" result="BackgroundImageFix"/><feColorMatrix in="SourceAlpha" values="0 0 0 0 0 0 0 0 0 0 0 0 0 0 0 0 0 0 127 0"/><feOffset dy="2"/><feGaussianBlur stdDeviation="2"/><feColorMatrix values="0 0 0 0 0 0 0 0 0 0.0823529 0 0 0 0 0.25098 0 0 0 0.08 0"/><feBlend in2="BackgroundImageFix" result="effect1_dropShadow"/><feColorMatrix in="SourceAlpha" values="0 0 0 0 0 0 0 0 0 0 0 0 0 0 0 0 0 0 127 0"/><feOffset dy="6"/><feGaussianBlur stdDeviation="16"/><feColorMatrix values="0 0 0 0 0 0 0 0 0 0.0823529 0 0 0 0 0.25098 0 0 0 0.12 0"/><feBlend in2="effect1_dropShadow" result="effect2_dropShadow"/><feBlend in="SourceGraphic" in2="effect2_dropShadow" result="shape"/><feColorMatrix in="SourceAlpha" result="hardAlpha" values="0 0 0 0 0 0 0 0 0 0 0 0 0 0 0 0 0 0 127 0"/><feOffset dy="-4"/><feGaussianBlur stdDeviation="6"/><feComposite in2="hardAlpha" k2="-1" k3="1" operator="arithmetic"/><feColorMatrix values="0 0 0 0 0.432 0 0 0 0 0.488 0 0 0 0 0.6 0 0 0 0.24 0"/><feBlend in2="shape" result="effect3_innerShadow"/><feColorMatrix in="SourceAlpha" result="hardAlpha" values="0 0 0 0 0 0 0 0 0 0 0 0 0 0 0 0 0 0 127 0"/><feOffset/><feGaussianBlur stdDeviation="2"/><feComposite in2="hardAlpha" k2="-1" k3="1" operator="arithmetic"/><feColorMatrix values="0 0 0 0 0.432 0 0 0 0 0.488 0 0 0 0 0.6 0 0 0 0.24 0"/><feBlend in2="effect3_innerShadow" result="effect4_innerShadow"/></filter><filter id="filter5_f" width="244" height="452" x="724" y="170" color-interpolation-filters="sRGB" filterUnits="userSpaceOnUse"><feFlood flood-opacity="0" result="BackgroundImageFix"/><feBlend in="SourceGraphic" in2="BackgroundImageFix" result="shape"/><feGaussianBlur result="effect1_foregroundBlur" stdDeviation="46"/></filter><filter id="filter6_ddii" width="220" height="384" x="776" y="204" color-interpolation-filters="sRGB" filterUnits="userSpaceOnUse"><feFlood flood-opacity="0" result="BackgroundImageFix"/><feColorMatrix in="SourceAlpha" values="0 0 0 0 0 0 0 0 0 0 0 0 0 0 0 0 0 0 127 0"/><feOffset dy="2"/><feGaussianBlur stdDeviation="2"/><feColorMatrix values="0 0 0 0 0 0 0 0 0 0.0823529 0 0 0 0 0.25098 0 0 0 0.08 0"/><feBlend in2="BackgroundImageFix" result="effect1_dropShadow"/><feColorMatrix in="SourceAlpha" values="0 0 0 0 0 0 0 0 0 0 0 0 0 0 0 0 0 0 127 0"/><feOffset dy="6"/><feGaussianBlur stdDeviation="16"/><feColorMatrix values="0 0 0 0 0 0 0 0 0 0.0823529 0 0 0 0 0.25098 0 0 0 0.12 0"/><feBlend in2="effect1_dropShadow" result="effect2_dropShadow"/><feBlend in="SourceGraphic" in2="effect2_dropShadow" result="shape"/><feColorMatrix in="SourceAlpha" result="hardAlpha" values="0 0 0 0 0 0 0 0 0 0 0 0 0 0 0 0 0 0 127 0"/><feOffset dy="-4"/><feGaussianBlur stdDeviation="4"/><feComposite in2="hardAlpha" k2="-1" k3="1" operator="arithmetic"/><feColorMatrix values="0 0 0 0 0.432 0 0 0 0 0.488 0 0 0 0 0.6 0 0 0 0.24 0"/><feBlend in2="shape" result="effect3_innerShadow"/><feColorMatrix in="SourceAlpha" result="hardAlpha" values="0 0 0 0 0 0 0 0 0 0 0 0 0 0 0 0 0 0 127 0"/><feOffset/><feGaussianBlur stdDeviation="2"/><feComposite in2="hardAlpha" k2="-1" k3="1" operator="arithmetic"/><feColorMatrix values="0 0 0 0 0.432 0 0 0 0 0.488 0 0 0 0 0.6 0 0 0 0.24 0"/><feBlend in2="effect3_innerShadow" result="effect4_innerShadow"/></filter><filter id="filter7_d" width="148" height="247" x="812" y="268" color-interpolation-filters="sRGB" filterUnits="userSpaceOnUse"><feFlood flood-opacity="0" result="BackgroundImageFix"/><feColorMatrix in="SourceAlpha" values="0 0 0 0 0 0 0 0 0 0 0 0 0 0 0 0 0 0 127 0"/><feOffset dy="1"/><feGaussianBlur stdDeviation="1.5"/><feColorMatrix values="0 0 0 0 0.288 0 0 0 0 0.352 0 0 0 0 0.48 0 0 0 0.24 0"/><feBlend in2="BackgroundImageFix" result="effect1_dropShadow"/><feBlend in="SourceGraphic" in2="effect1_dropShadow" result="shape"/></filter><linearGradient id="paint0_linear" x1="196" x2="196" y1="450" y2="546" gradientUnits="userSpaceOnUse"><stop offset=".044" stop-color="#F5F7FA"/><stop offset=".216" stop-color="#fff"/><stop offset=".628" stop-color="#fff"/><stop offset="1" stop-color="#fff"/></linearGradient><linearGradient id="paint1_linear" x1="196" x2="196" y1="546" y2="450" gradientUnits="userSpaceOnUse"><stop stop-color="#EBF2FA"/><stop offset=".181" stop-color="#F0F6FC"/><stop offset=".713" stop-color="#F2F8FF"/><stop offset=".757" stop-color="#F1F7FE"/><stop offset=".807" stop-color="#EBF2FA"/><stop offset="1" stop-color="#EBF2FA"/></linearGradient><linearGradient id="paint2_linear" x1="196" x2="196" y1="450" y2="546" gradientUnits="userSpaceOnUse"><stop offset=".044" stop-color="#F5F7FA"/><stop offset=".216" stop-color="#fff"/><stop offset=".628" stop-color="#fff"/><stop offset="1" stop-color="#fff"/></linearGradient><linearGradient id="paint3_linear" x1="196" x2="196" y1="546" y2="450" gradientUnits="userSpaceOnUse"><stop stop-color="#685242"/><stop offset=".181" stop-color="#A98161"/><stop offset="1" stop-color="#8D6D55"/></linearGradient><linearGradient id="paint4_linear" x1="196" x2="196" y1="546" y2="532" gradientUnits="userSpaceOnUse"><stop stop-color="#A1A6BD"/><stop offset="1" stop-color="#D8E3F0"/></linearGradient><linearGradient id="paint5_linear" x1="886" x2="886" y1="230" y2="550" gradientUnits="userSpaceOnUse"><stop stop-color="#F0F6FC"/><stop offset="1" stop-color="#EBF2FA"/></linearGradient><linearGradient id="paint6_linear" x1="886.11" x2="886.11" y1="292.01" y2="380.996" gradientUnits="userSpaceOnUse"><stop stop-color="#49B3EF"/><stop offset=".369" stop-color="#43BAEF"/><stop offset=".914" stop-color="#31CEF1"/><stop offset="1" stop-color="#2ED2F1"/></linearGradient><linearGradient id="paint7_linear" x1="834" x2="834" y1="318" y2="365" gradientUnits="userSpaceOnUse"><stop stop-color="#fff"/><stop offset="1" stop-color="#fff" stop-opacity=".4"/></linearGradient><linearGradient id="paint8_linear" x1="860" x2="860" y1="322" y2="365" gradientUnits="userSpaceOnUse"><stop stop-color="#fff"/><stop offset="1" stop-color="#fff" stop-opacity=".4"/></linearGradient><linearGradient id="paint9_linear" x1="886" x2="886" y1="326" y2="365" gradientUnits="userSpaceOnUse"><stop stop-color="#fff"/><stop offset="1" stop-color="#fff" stop-opacity=".4"/></linearGradient><linearGradient id="paint10_linear" x1="912" x2="912" y1="338" y2="365" gradientUnits="userSpaceOnUse"><stop stop-color="#fff"/><stop offset="1" stop-color="#fff" stop-opacity=".4"/></linearGradient><linearGradient id="paint11_linear" x1="938" x2="938" y1="342" y2="365" gradientUnits="userSpaceOnUse"><stop stop-color="#fff"/><stop offset="1" stop-color="#fff" stop-opacity=".4"/></linearGradient></defs></svg>